<svg width="20" height="20" viewBox="0 0 20 20" fill="none" xmlns="http://www.w3.org/2000/svg">
<path d="M12.3583 7.64999C11.8921 7.18329 11.298 6.86538 10.651 6.73655C10.0041 6.60772 9.33343 6.67376 8.72402 6.92627C8.11461 7.17878 7.59383 7.60641 7.22759 8.15506C6.86136 8.7037 6.66611 9.34869 6.66663 10.0083C6.66592 10.8886 7.01345 11.7334 7.63332 12.3583" stroke="#4A4B4E" stroke-width="1.5" stroke-linecap="round" stroke-linejoin="round"/>
<path d="M10 13.3416C10.8841 13.3416 11.7319 12.9904 12.357 12.3653C12.9821 11.7402 13.3333 10.8924 13.3333 10.0083" stroke="#4A4B4E" stroke-width="1.5" stroke-linecap="round" stroke-linejoin="round"/>
<path d="M14.675 5.32499L5.31663 14.6833C3.85062 13.3304 2.61745 11.7453 1.66663 9.99164C5.59163 3.13331 10.3667 1.57499 14.675 5.32499Z" stroke="#4A4B4E" stroke-width="1.5" stroke-linecap="round" stroke-linejoin="round"/>
<path d="M17.4994 2.5L14.6744 5.325" stroke="#4A4B4E" stroke-width="1.5" stroke-linecap="round" stroke-linejoin="round"/>
<path d="M5.31667 14.6833L2.5 17.5" stroke="#4A4B4E" stroke-width="1.5" stroke-linecap="round" stroke-linejoin="round"/>
<path d="M16.308 7.02502C17.0668 7.95992 17.7443 8.95801 18.333 10.0084C14.9996 15.8417 11.058 17.8333 7.30798 16.025" stroke="#4A4B4E" stroke-width="1.5" stroke-linecap="round" stroke-linejoin="round"/>
</svg>
