<svg width="38" height="46" viewBox="0 0 38 46" fill="none" xmlns="http://www.w3.org/2000/svg">
<g clip-path="url(#clip0_929_768)">
<path d="M3.5 6.5H1.5V45.5H3.5V6.5Z" fill="#CAD4DD"/>
<path d="M4.88974 1.37422C5.62222 1.37422 6.30382 1.59648 6.86844 1.97185C6.2377 1.08281 5.18477 0.5 3.9945 0.5C2.06159 0.5 0.5 2.0163 0.5 3.88821C0.5 5.0489 1.10022 6.07129 2.01581 6.67879C1.62923 6.13056 1.40033 5.47366 1.40033 4.75749C1.40033 2.89052 2.96192 1.37422 4.88974 1.37422Z" fill="#FEE28E"/>
<path d="M6.86847 1.97185C6.71588 1.86813 6.5531 1.78416 6.38525 1.70514C6.59888 2.14472 6.72605 2.63863 6.72605 3.15723C6.72605 4.09072 6.33947 4.9353 5.70873 5.54775C5.07799 6.16513 4.20309 6.54544 3.23155 6.54544C2.89583 6.54544 2.57537 6.49605 2.27018 6.40715C2.08706 6.35776 1.90903 6.29355 1.73608 6.21452C1.81747 6.37751 1.90903 6.53556 2.01076 6.68374C2.09215 6.73807 2.18371 6.78252 2.27018 6.83191C2.77884 7.11344 3.3638 7.28137 3.98945 7.28137C4.61511 7.28137 5.20007 7.11838 5.70873 6.84179C6.76674 6.25898 7.48395 5.15756 7.48395 3.89315C7.48395 3.18193 7.25506 2.52009 6.86847 1.97185Z" fill="#F5A93B"/>
<path d="M6.38527 1.70514C5.93256 1.4977 5.4239 1.37422 4.88981 1.37422C2.96198 1.37422 1.40039 2.89052 1.40039 4.76243C1.40039 5.28104 1.52247 5.77495 1.74119 6.21452C1.91414 6.29355 2.09217 6.35776 2.27529 6.40715C2.58048 6.49111 2.90094 6.54544 3.23666 6.54544C4.20311 6.54544 5.07801 6.16513 5.71384 5.54775C6.33949 4.9353 6.73116 4.09072 6.73116 3.15723C6.73116 2.63863 6.60908 2.14472 6.39036 1.70514H6.38527Z" fill="#F5C64F"/>
<path d="M5.70857 6.83684C5.19991 7.11837 4.61495 7.27642 3.98929 7.27642C3.36364 7.27642 2.77868 7.10849 2.27002 6.82697V9.76572H5.70857V6.83684Z" fill="#CAD4DD"/>
<path d="M5.71369 9.77066H2.27515V45.5049H5.71369V9.77066Z" fill="white"/>
<path d="M29.5495 6.83685H21.6042V12.0377H29.5495V6.83685Z" fill="#677177"/>
<path d="M29.5495 12.0377H21.6042V17.2386H29.5495V12.0377Z" fill="white"/>
<path d="M21.6045 6.83685H13.6592V12.0377H21.6045V6.83685Z" fill="white"/>
<path d="M13.659 6.83685H7.48389V12.0377H13.659V6.83685Z" fill="#677177"/>
<path d="M37.5 6.83685H29.5547V12.0377H37.5V6.83685Z" fill="white"/>
<path d="M29.5495 17.2386H21.6042V22.4394H29.5495V17.2386Z" fill="#677177"/>
<path d="M21.6045 17.2386H13.6592V22.4394H21.6045V17.2386Z" fill="white"/>
<path d="M21.6045 12.0377H13.6592V17.2386H21.6045V12.0377Z" fill="#677177"/>
<path d="M37.5 17.2386H29.5547V22.4394H37.5V17.2386Z" fill="white"/>
<path d="M37.5 22.4345H29.5547V27.6353H37.5V22.4345Z" fill="#677177"/>
<path d="M37.5 12.0377H29.5547V17.2386H37.5V12.0377Z" fill="#677177"/>
<path d="M29.5495 22.4345H21.6042V27.6353H29.5495V22.4345Z" fill="white"/>
<path d="M21.6045 22.4345H13.6592V27.6353H21.6045V22.4345Z" fill="#677177"/>
<path d="M13.659 17.2386H7.48389V22.4394H13.659V17.2386Z" fill="#677177"/>
<path d="M13.659 12.0377H7.48389V17.2386H13.659V12.0377Z" fill="white"/>
<path d="M13.659 22.4345H7.48389V27.6353H13.659V22.4345Z" fill="white"/>
<path d="M7.48397 6.83685H5.70874V12.0377H7.48397V6.83685Z" fill="#4F5C67"/>
<path d="M7.48397 17.2386H5.70874V22.4394H7.48397V17.2386Z" fill="#4F5C67"/>
<path d="M7.48397 12.0377H5.70874V17.2386H7.48397V12.0377Z" fill="#CAD4DD"/>
<path d="M7.48397 22.4345H5.70874V27.6353H7.48397V22.4345Z" fill="#CAD4DD"/>
</g>
<defs>
<clipPath id="clip0_929_768">
<rect width="37" height="45" fill="white" transform="translate(0.5 0.5)"/>
</clipPath>
</defs>
</svg>
