<svg width="28" height="36" viewBox="0 0 28 36" fill="none" xmlns="http://www.w3.org/2000/svg">
<g clip-path="url(#clip0_929_1167)">
<path d="M7.15602 34.339L6.99526 34.2845L6.83454 34.3391L3.50063 35.472L0.63675 34.5005L8.32651 12.2374H19.6735L27.3632 34.5003L24.4932 35.4721L21.153 34.339L20.9923 34.2845L20.8317 34.339L17.4917 35.472L14.1578 34.3391L13.9971 34.2845L13.8363 34.339L10.4962 35.472L7.15602 34.339Z" fill="white" stroke="#DCDDE0"/>
<path d="M5.65894 20.3362H22.2125" stroke="#E2EBF3" stroke-width="2" stroke-linecap="round" stroke-linejoin="round"/>
<path d="M13.9968 34.8125V11.1527" stroke="#E2EBF3" stroke-width="2" stroke-linecap="round" stroke-linejoin="round"/>
<path d="M20.9923 34.8125L16.8662 11.1527" stroke="#E2EBF3" stroke-width="2" stroke-linecap="round" stroke-linejoin="round"/>
<path d="M6.84204 34.8125L11.0724 11.1527" stroke="#E2EBF3" stroke-width="2" stroke-linecap="round" stroke-linejoin="round"/>
<path d="M13.5923 0H14.4077C17.51 0 20.0298 2.45251 20.0298 5.4719V11.7374H7.97021V5.4719C7.97021 2.45251 10.49 0 13.5923 0Z" fill="#1E3560"/>
<path d="M8.95728 8.50323H18.9323" stroke="#B6C1CB" stroke-width="2" stroke-linecap="round" stroke-linejoin="round"/>
</g>
<defs>
<clipPath id="clip0_929_1167">
<rect width="28" height="36" fill="white"/>
</clipPath>
</defs>
</svg>
