<svg width="36" height="36" viewBox="0 0 36 36" fill="none" xmlns="http://www.w3.org/2000/svg">
<g clip-path="url(#clip0_929_1077)">
<path d="M32.6253 7.51205C29.4302 3.06793 24.2586 0.135866 18.3988 0.00876552C18.2673 0.00876552 18.1359 0 18.0044 0C11.4039 0 5.645 3.54565 2.50694 8.83565C0.915997 11.5223 0 14.6516 0 18V18.0131C0 21.4536 0.96859 24.6618 2.64719 27.3966C5.81154 32.5595 11.5047 36 18 36C18.1315 36 18.263 35.9912 18.3944 35.9912C23.7546 35.8729 28.5318 33.4186 31.7531 29.6012C34.0015 26.9365 35.4916 23.6143 35.8904 19.9591C35.9606 19.3148 36 18.6618 36 18C36 14.0862 34.7465 10.466 32.6253 7.51205Z" fill="#ED6D41"/>
<path d="M2.91016 9.0767C6.53908 10.2688 9.2038 12.6793 9.87875 15.8744C9.88751 15.9094 9.89189 15.9445 9.89628 15.9795C11.1015 15.8437 12.3199 15.7429 13.5515 15.699C13.9284 10.1505 15.6421 4.97005 18.3857 0.482101" stroke="#EA5629" stroke-width="2" stroke-linecap="round" stroke-linejoin="round"/>
<path d="M18.3857 0.482101C15.6421 4.97005 13.9284 10.1505 13.5515 15.699C14.1914 15.6728 14.8357 15.6596 15.4799 15.6596C17.2067 15.6596 18.916 15.7516 20.599 15.927C20.599 15.9094 20.6034 15.8963 20.6078 15.8787C21.5851 11.233 26.3842 8.11687 32.2396 7.79255" stroke="#EA5629" stroke-width="2" stroke-linecap="round" stroke-linejoin="round"/>
<path d="M18.3858 35.5179C15.2653 30.4164 13.464 24.4164 13.464 18C13.464 17.2243 13.499 16.4573 13.5516 15.6947C12.3201 15.7429 11.1016 15.8393 9.89639 15.9752C10.7203 20.1782 7.8584 24.5303 3.04175 27.1468" stroke="#EA5629" stroke-width="2" stroke-linecap="round" stroke-linejoin="round"/>
<path d="M31.3937 29.2988C24.2104 27.2564 19.4595 21.4887 20.599 15.9226C18.916 15.7473 17.2111 15.6552 15.4799 15.6552C14.8357 15.6552 14.1914 15.6728 13.5515 15.6947C13.4989 16.4573 13.4639 17.2243 13.4639 18C13.4639 24.4207 15.2652 30.4164 18.3857 35.5179" stroke="#EA5629" stroke-width="2" stroke-linecap="round" stroke-linejoin="round"/>
<path d="M32.2395 7.78816C26.3841 8.11249 21.585 11.2286 20.6076 15.8744C20.6076 15.8919 20.6033 15.905 20.5989 15.9226C25.8319 16.4704 30.8151 17.8422 35.4214 19.9109" stroke="#EA5629" stroke-width="2" stroke-linecap="round" stroke-linejoin="round"/>
<path d="M35.4215 19.9065C30.8152 17.8378 25.832 16.466 20.599 15.9182C19.4595 21.4843 24.2104 27.2476 31.3938 29.2944" stroke="#EA5629" stroke-width="2" stroke-linecap="round" stroke-linejoin="round"/>
<path d="M0.468994 18V18.0131C3.4931 17.0358 6.64869 16.3477 9.89631 15.9795C9.88755 15.9445 9.88755 15.9094 9.87878 15.8744C9.20384 12.6837 6.53912 10.2688 2.91019 9.07669" stroke="#EA5629" stroke-width="2" stroke-linecap="round" stroke-linejoin="round"/>
<path d="M3.04607 27.1512C7.86272 24.5347 10.7247 20.187 9.90071 15.9796C6.6487 16.3521 3.49749 17.0358 0.473389 18.0132" stroke="#EA5629" stroke-width="2" stroke-linecap="round" stroke-linejoin="round"/>
</g>
<defs>
<clipPath id="clip0_929_1077">
<rect width="36" height="36" fill="white"/>
</clipPath>
</defs>
</svg>
