<svg width="20" height="52" viewBox="0 0 20 52" fill="none" xmlns="http://www.w3.org/2000/svg">
<g clip-path="url(#clip0_929_1180)">
<path d="M6.12698 18.8879L5.92117 18.9945C2.99987 20.5076 1 23.573 1 27.1215C1 33.6579 2.27558 39.7037 3.55436 44.1203C4.19334 46.3272 4.8321 48.1237 5.31042 49.367C5.54955 49.9886 5.74849 50.4717 5.88719 50.7983C5.91933 50.874 5.94824 50.9413 5.97366 51H14.0263C14.0518 50.9413 14.0807 50.874 14.1128 50.7983C14.2515 50.4717 14.4504 49.9886 14.6896 49.367C15.1679 48.1237 15.8067 46.3272 16.4456 44.1203C17.7244 39.7037 19 33.6579 19 27.1215H19.5C19.4969 23.3675 17.3713 20.1293 14.2744 18.5424L6.12698 18.8879ZM6.12698 18.8879L6.17863 18.662C6.33023 17.9989 6.54086 17.0287 6.71386 16.0654C6.88492 15.113 7.02628 14.1302 7.02628 13.4587C7.02628 12.6386 6.77259 11.7766 6.5014 11.0811C6.22711 10.3778 5.91795 9.8028 5.77433 9.54674L5.76506 9.53021L5.75456 9.51442C5.17017 8.63583 4.82238 7.56921 4.82238 6.41862C4.82238 3.40815 7.15806 1 9.9957 1C12.8329 1 15.169 3.40769 15.169 6.42681C15.169 7.58593 14.821 8.6525 14.2368 9.53079L14.2292 9.5423L14.2222 9.5542C14.0716 9.81019 13.7553 10.3842 13.4752 11.0869C13.1982 11.7818 12.9393 12.6451 12.9393 13.4669C12.9393 14.1345 13.0807 15.1134 13.2518 16.0626C13.4248 17.0228 13.6354 17.9909 13.7869 18.6538L13.8389 18.8811L14.0463 18.9874C16.9838 20.4926 19 23.5656 19 27.1297H19.5L6.12698 18.8879Z" fill="white" stroke="#DCDDE0"/>
<path d="M5.69124 18.5587C5.69124 18.5587 5.66541 18.5751 5.64819 18.5833H14.3519C14.3519 18.5833 14.3002 18.5506 14.2744 18.5424C13.9731 17.2244 13.4393 14.703 13.4393 13.4669H6.52631C6.52631 14.7112 5.99255 17.2408 5.69124 18.5587Z" fill="#1D355F"/>
</g>
<defs>
<clipPath id="clip0_929_1180">
<rect width="19" height="51" fill="white" transform="translate(0.5 0.5)"/>
</clipPath>
</defs>
</svg>
