<svg width="28" height="28" viewBox="0 0 28 28" fill="none" xmlns="http://www.w3.org/2000/svg">
<g clip-path="url(#clip0_929_1087)">
<path d="M14 27.5C21.4558 27.5 27.5 21.4558 27.5 14C27.5 6.54416 21.4558 0.5 14 0.5C6.54416 0.5 0.5 6.54416 0.5 14C0.5 21.4558 6.54416 27.5 14 27.5Z" fill="#1E3560"/>
<path d="M15.9652 20.599C20.4909 20.599 24.1598 16.9301 24.1598 12.4043C24.1598 7.87856 20.4909 4.20969 15.9652 4.20969C11.4394 4.20969 7.77051 7.87856 7.77051 12.4043C7.77051 16.9301 11.4394 20.599 15.9652 20.599Z" fill="#EAEAEA"/>
<path d="M16.123 12.0843C17.2956 12.0843 18.2461 11.1338 18.2461 9.96126C18.2461 8.78874 17.2956 7.83823 16.123 7.83823C14.9505 7.83823 14 8.78874 14 9.96126C14 11.1338 14.9505 12.0843 16.123 12.0843Z" stroke="#52A39F" stroke-width="2" stroke-linecap="round" stroke-linejoin="round"/>
<path d="M16.123 16.3304C17.2956 16.3304 18.2461 15.3799 18.2461 14.2073C18.2461 13.0348 17.2956 12.0843 16.123 12.0843C14.9505 12.0843 14 13.0348 14 14.2073C14 15.3799 14.9505 16.3304 16.123 16.3304Z" stroke="#52A39F" stroke-width="2" stroke-linecap="round" stroke-linejoin="round"/>
</g>
<defs>
<clipPath id="clip0_929_1087">
<rect width="27" height="27" fill="white" transform="translate(0.5 0.5)"/>
</clipPath>
</defs>
</svg>
