<svg width="28" height="46" viewBox="0 0 28 46" fill="none" xmlns="http://www.w3.org/2000/svg">
<g clip-path="url(#clip0_929_1159)">
<path d="M25.3257 33.5957C25.8488 32.6836 25.6437 31.5279 24.8488 30.849L23.3667 29.5896C22.9821 29.2631 22.7206 28.807 22.6334 28.3043L22.2949 26.3764C22.1155 25.3399 21.2231 24.5833 20.1821 24.5833H18.2437C17.7411 24.5833 17.2488 24.4019 16.8642 24.0754L15.3821 22.816C15.3821 22.816 15.3462 22.7901 15.3257 22.7797C14.5462 22.1578 13.4539 22.1578 12.6744 22.7797C12.659 22.7953 12.6385 22.8056 12.618 22.816L11.136 24.0754C10.7514 24.4019 10.259 24.5833 9.75648 24.5833H7.81802C6.77699 24.5833 5.88469 25.3399 5.7052 26.3764L5.36674 28.3043C5.27956 28.807 5.01802 29.2631 4.6334 29.5896L3.15135 30.849C2.35135 31.5279 2.15135 32.6836 2.67443 33.5957L3.64366 35.2904C3.89494 35.7309 3.98725 36.2492 3.90007 36.7519L3.56161 38.6798C3.38212 39.7163 3.96161 40.7372 4.9411 41.0948L6.76161 41.7634C7.2334 41.9396 7.6334 42.2765 7.88469 42.717L8.85392 44.4117C9.37699 45.3238 10.4693 45.7228 11.4488 45.3652L13.2693 44.6967C13.7411 44.5205 14.2642 44.5205 14.736 44.6967L16.5565 45.3652C17.536 45.7228 18.6283 45.3238 19.1514 44.4117L20.1206 42.717C20.3719 42.2765 20.7719 41.9396 21.2437 41.7634L23.0642 41.0948C24.0437 40.7372 24.6231 39.7163 24.4437 38.6798L24.1052 36.7519C24.018 36.2492 24.1052 35.7309 24.3616 35.2904L25.3308 33.5957H25.3257Z" fill="#F5C64F"/>
<path d="M21.8897 33.6942C22.2538 33.0619 22.1102 32.2534 21.5564 31.7818L20.5256 30.906C20.259 30.6779 20.0744 30.3618 20.0128 30.0094L19.7769 28.6671C19.6487 27.9467 19.0282 27.4181 18.3051 27.4181H16.9564C16.6026 27.4181 16.2641 27.2937 15.9974 27.0657L14.9667 26.1899C14.9667 26.1899 14.941 26.1743 14.9308 26.1639C14.3872 25.7338 13.6282 25.7338 13.0846 26.1639C13.0744 26.1743 13.059 26.1795 13.0487 26.1899L12.0179 27.0657C11.7513 27.2937 11.4077 27.4181 11.059 27.4181H9.71025C8.98717 27.4181 8.36666 27.9467 8.23845 28.6671L8.00256 30.0094C7.94102 30.3566 7.76153 30.6779 7.48974 30.906L6.45897 31.7818C5.90512 32.2534 5.76153 33.0619 6.12563 33.6942L6.79743 34.8758C6.97179 35.1816 7.03845 35.5443 6.97692 35.8916L6.74102 37.2338C6.61281 37.9542 7.01794 38.6642 7.69999 38.913L8.96666 39.3794C9.29486 39.4986 9.57179 39.737 9.75127 40.0428L10.4231 41.2244C10.7872 41.8567 11.5461 42.1417 12.2282 41.8878L13.4949 41.4213C13.8231 41.3021 14.1872 41.3021 14.5154 41.4213L15.782 41.8878C16.4641 42.1365 17.2231 41.8567 17.5872 41.2244L18.259 40.0428C18.4333 39.737 18.7102 39.4986 19.0436 39.3794L20.3102 38.913C20.9923 38.6642 21.3974 37.9542 21.2692 37.2338L21.0333 35.8916C20.9718 35.5443 21.0333 35.1816 21.2128 34.8758L21.8846 33.6942H21.8897Z" fill="#F5A93B"/>
<path d="M22.1204 5.49079L24.0845 0.5H3.91528L5.87939 5.49079H22.1204Z" fill="#52A39F"/>
<path d="M7.83333 20.5409H9.75641C10.259 20.5409 10.7513 20.3595 11.1359 20.033L11.4795 19.7428L5.87949 5.49079L3.91538 0.5L0.5 5.9313L6.43846 21.0436C6.81282 20.7275 7.29487 20.5357 7.81795 20.5357H7.8282L7.83333 20.5409Z" fill="#ACD7C5"/>
<path d="M9.75642 24.5884C10.259 24.5884 10.7513 24.4071 11.1359 24.0806L12.618 22.8212C12.618 22.8212 12.6539 22.7953 12.6744 22.7849L11.4795 19.7428L11.1359 20.033C10.7513 20.3595 10.259 20.5409 9.75642 20.5409H7.81796C7.29489 20.5409 6.81284 20.7275 6.43848 21.0488L7.82822 24.5884H9.7513H9.75642Z" fill="#52A39F"/>
<path d="M18.2436 20.5409H20.182C20.7051 20.5409 21.1872 20.7275 21.5615 21.0488L27.5 5.93648L24.0846 0.5L22.1256 5.49079L16.5256 19.7428L16.8692 20.033C17.2538 20.3595 17.7461 20.5409 18.2487 20.5409H18.2436Z" fill="#ACD7C5"/>
<path d="M15.3821 22.8212L16.8641 24.0806C17.2488 24.4071 17.7411 24.5884 18.2436 24.5884H20.1667L21.5565 21.0488C21.1821 20.7326 20.7 20.5409 20.177 20.5409H18.2385C17.7359 20.5409 17.2436 20.3595 16.859 20.033L16.5154 19.7428L15.3206 22.7849C15.3206 22.7849 15.3565 22.8108 15.377 22.8212H15.3821Z" fill="#52A39F"/>
</g>
<defs>
<clipPath id="clip0_929_1159">
<rect width="27" height="45" fill="white" transform="translate(0.5 0.5)"/>
</clipPath>
</defs>
</svg>
