<svg width="36" height="36" viewBox="0 0 36 36" fill="none" xmlns="http://www.w3.org/2000/svg">
<g clip-path="url(#clip0_929_1134)">
<path d="M13.4138 24.3148L10.5778 15.5901L6.91842 13.2837L0.504883 18.2576C0.553032 21.5751 1.52566 24.6711 3.17237 27.2953L10.0867 27.0786L13.409 24.31L13.4138 24.3148Z" fill="white"/>
<path d="M18.0024 10.1973L25.4223 15.5901L29.7365 15.306L32.0044 7.50578C30.0976 4.96829 27.5168 2.97008 24.5315 1.76633L19.0617 6.00832L18.0024 10.2022V10.1973Z" fill="white"/>
<path d="M10.5778 15.5901L17.9977 10.1973L19.057 6.00351L12.3449 1.43892C9.28741 2.48377 6.61029 4.34716 4.57837 6.7739L6.92326 13.2837L10.5826 15.5901H10.5778Z" fill="white"/>
<path d="M22.5861 24.3148H13.4136L10.0913 27.0834L12.8455 34.7296C14.4777 35.2304 16.2063 35.5048 18.0023 35.5048C19.4709 35.5048 20.8961 35.3218 22.2635 34.98L24.1943 28.3305L22.591 24.3148H22.5861Z" fill="white"/>
<path d="M29.7364 15.3012L25.4222 15.5853L22.5862 24.31L24.1896 28.3257L32.3028 28.0705C34.0988 25.5234 35.2303 22.4803 35.4518 19.1869L29.7316 15.2964L29.7364 15.3012Z" fill="white"/>
<path d="M10.0913 27.0834L13.4136 24.3148" stroke="#E2EBF3" stroke-width="2" stroke-linecap="round" stroke-linejoin="round"/>
<path d="M6.9231 13.2837L10.5777 15.5901" stroke="#E2EBF3" stroke-width="2" stroke-linecap="round" stroke-linejoin="round"/>
<path d="M19.0617 6.00832L18.0024 10.1973" stroke="#E2EBF3" stroke-width="2" stroke-linecap="round" stroke-linejoin="round"/>
<path d="M25.4224 15.5901L29.7366 15.3012" stroke="#E2EBF3" stroke-width="2" stroke-linecap="round" stroke-linejoin="round"/>
<path d="M22.5862 24.3148L24.1944 28.3305" stroke="#E2EBF3" stroke-width="2" stroke-linecap="round" stroke-linejoin="round"/>
<path d="M10.5776 15.5901L13.4137 24.3148H22.5862L25.4222 15.5901L18.0023 10.1973L10.5776 15.5901Z" fill="#1E3560"/>
<path d="M22.2588 34.9752C26.3852 33.9448 29.9242 31.4458 32.3076 28.0705L24.1944 28.3257L22.2636 34.9752H22.2588Z" fill="#1E3560"/>
<path d="M35.4568 19.1917C35.4856 18.7969 35.5001 18.402 35.5001 18.0024C35.5001 14.0638 34.2 10.4285 32.0044 7.50578L29.7366 15.306L35.4568 19.1965V19.1917Z" fill="#1E3560"/>
<path d="M24.5314 1.76634C22.5139 0.952607 20.3087 0.5 18.0023 0.5C16.0234 0.5 14.1214 0.832233 12.3447 1.43892L19.0616 6.00351L24.5314 1.76634Z" fill="#1E3560"/>
<path d="M4.57828 6.7739C2.03597 9.81215 0.5 13.7267 0.5 18.0024C0.5 18.0891 0.504815 18.1757 0.504815 18.2624L6.91835 13.2886L4.57346 6.77872L4.57828 6.7739Z" fill="#1E3560"/>
<path d="M3.177 27.3001C5.38226 30.8102 8.80088 33.4873 12.8455 34.7296L10.0913 27.0834L3.177 27.3001Z" fill="#1E3560"/>
</g>
<defs>
<clipPath id="clip0_929_1134">
<rect width="35" height="35" fill="white" transform="translate(0.5 0.5)"/>
</clipPath>
</defs>
</svg>
