<svg width="24" height="24" viewBox="0 0 24 24" fill="none" xmlns="http://www.w3.org/2000/svg">
<path d="M21 9.42999V7C21 5.93913 20.5786 4.92172 19.8284 4.17157C19.0783 3.42142 18.0609 3 17 3H7C5.93913 3 4.92178 3.42142 4.17163 4.17157C3.42149 4.92172 3 5.93913 3 7V17C3 18.0609 3.42149 19.0783 4.17163 19.8284C4.92178 20.5786 5.93913 21 7 21H12.46" stroke="#38393C" stroke-width="1.5" stroke-linecap="round" stroke-linejoin="round"/>
<path d="M14.4003 10.22L3.82031 4.57001" stroke="#38393C" stroke-width="1.5" stroke-linecap="round" stroke-linejoin="round"/>
<path d="M4.58008 20.18L10.9001 8.34998" stroke="#38393C" stroke-width="1.5" stroke-linecap="round" stroke-linejoin="round"/>
<path d="M18.5 12C17.9087 11.9987 17.3229 12.1142 16.7764 12.3399C16.2298 12.5655 15.7333 12.8969 15.3151 13.3151C14.897 13.7332 14.5656 14.2298 14.3399 14.7764C14.1142 15.3229 13.9987 15.9087 14 16.5C14 19.5 17.38 22 18.5 22C19.62 22 23 19.55 23 16.5C23 15.3065 22.5259 14.1619 21.682 13.318C20.8381 12.4741 19.6935 12 18.5 12V12Z" stroke="#38393C" stroke-width="1.5" stroke-linecap="round" stroke-linejoin="round"/>
<path d="M18.5 17C18.3677 16.9995 18.2369 16.9726 18.115 16.9211C17.9931 16.8696 17.8827 16.7945 17.7901 16.7C17.6053 16.5138 17.5011 16.2623 17.5 16C17.4993 15.8684 17.5245 15.7379 17.5743 15.6161C17.6241 15.4943 17.6974 15.3834 17.7901 15.29C17.883 15.1962 17.9936 15.1219 18.1155 15.0711C18.2374 15.0203 18.368 14.9942 18.5 14.9942C18.632 14.9942 18.7627 15.0203 18.8846 15.0711C19.0065 15.1219 19.1171 15.1962 19.21 15.29C19.3027 15.3834 19.376 15.4943 19.4258 15.6161C19.4756 15.7379 19.5008 15.8684 19.5 16C19.4989 16.2623 19.3948 16.5138 19.21 16.7C19.1174 16.7945 19.007 16.8696 18.8851 16.9211C18.7632 16.9726 18.6323 16.9995 18.5 17Z" fill="#38393C"/>
</svg>
