<svg width="24" height="24" viewBox="0 0 24 24" fill="none" xmlns="http://www.w3.org/2000/svg">
<g opacity="0.86">
<path d="M13.4117 19C13.3639 19.5127 13.0953 19.9911 12.6593 20.3399C12.2234 20.6887 11.6519 20.8824 11.0588 20.8824C10.4656 20.8824 9.89415 20.6887 9.45816 20.3399C9.02217 19.9911 8.75357 19.5127 8.70581 19" stroke="#4A4B4E" stroke-width="1.5" stroke-linecap="round" stroke-linejoin="round"/>
<path d="M17.6631 12.8477L18.1043 16.3924C18.1584 16.8313 18.0472 17.2746 17.7925 17.6353C17.5378 17.9961 17.1581 18.2481 16.7278 18.3421C13.0019 19.2193 9.12437 19.2193 5.39841 18.3421C4.96654 18.25 4.58472 17.9988 4.32827 17.6378C4.07181 17.2769 3.95938 16.8325 4.01314 16.3924L4.89549 9.20549C5.12077 7.72791 5.86969 6.3817 7.00451 5.41454C8.13933 4.44738 9.58372 3.92432 11.072 3.94154V3.94154H11.6455" stroke="#4A4B4E" stroke-width="1.5" stroke-linecap="round" stroke-linejoin="round"/>
<path d="M16.7055 9.58824C18.5248 9.58824 19.9996 8.11341 19.9996 6.29412C19.9996 4.47483 18.5248 3 16.7055 3C14.8862 3 13.4114 4.47483 13.4114 6.29412C13.4114 8.11341 14.8862 9.58824 16.7055 9.58824Z" fill="#6367CC"/>
</g>
</svg>
