<svg width="24" height="24" viewBox="0 0 24 24" fill="none" xmlns="http://www.w3.org/2000/svg">
<path d="M14 18C14 18.5304 13.7366 19.0392 13.2678 19.4142C12.7989 19.7893 12.163 20 11.5 20C10.837 20 10.2011 19.7893 9.73224 19.4142C9.2634 19.0392 9 18.5304 9 18" stroke="#38393C" stroke-width="1.5" stroke-linecap="round" stroke-linejoin="round"/>
<path d="M6.38416 17.1925C5.95669 17.1018 5.57876 16.8542 5.32492 16.4985C5.07108 16.1428 4.95979 15.7048 5.013 15.2711L5.88637 8.18817C6.10935 6.73197 6.85064 5.40524 7.9739 4.45208C9.09715 3.49892 10.5268 2.98343 11.9999 3.00041V3.00041C13.473 2.98343 14.9026 3.49892 16.0259 4.45208C17.1491 5.40524 17.8904 6.73197 18.1134 8.18817L18.9868 15.2711C19.0403 15.7036 18.9302 16.1405 18.6781 16.496C18.426 16.8515 18.0502 17.0999 17.6243 17.1925C13.928 18.0611 10.0805 18.0611 6.38416 17.1925V17.1925Z" stroke="#38393C" stroke-width="1.5" stroke-linecap="round" stroke-linejoin="round"/>
</svg>
