<svg width="24" height="23" viewBox="0 0 24 23" fill="none" xmlns="http://www.w3.org/2000/svg">
<g clip-path="url(#clip0_1093_1669)">
<path d="M12.0012 0C5.37197 0 0 4.24602 0 9.48667C0 12.8961 2.27622 15.8873 5.69298 17.558C5.4425 18.4943 4.78346 20.9529 4.65214 21.4782C4.48921 22.1299 4.89047 22.1226 5.15311 21.9475C5.35981 21.8089 8.44098 19.7126 9.7712 18.8104C10.4935 18.9174 11.2376 18.9733 11.9988 18.9733C18.6256 18.9733 24 14.7273 24 9.48667C24 4.24602 18.628 0 12.0012 0Z" fill="#371D1E"/>
<path d="M3.62828 7.74058H4.86367C4.86367 7.74058 4.87096 11.133 4.86367 11.9234C4.86367 12.4997 6.14769 12.507 6.14769 11.9307L6.15255 7.78435C6.15255 7.78435 6.56597 7.78678 7.38064 7.78678C8.14911 7.78678 8.14911 6.57815 7.38064 6.57815C6.5149 6.57815 3.62342 6.55383 3.62342 6.55383C2.89873 6.55383 2.90116 7.73815 3.62342 7.73815" fill="#FAE100"/>
<path d="M9.54016 7.95943L10.2284 10.1141H8.79601L9.54016 7.95943ZM8.76926 6.95021C8.46528 7.61897 7.36851 10.7804 7.00373 11.6194C6.74109 12.2249 7.87677 12.7186 8.13941 12.113L8.38746 11.2497H10.6467C10.6467 11.2497 10.5688 11.2862 10.868 12.0766C11.1111 12.7186 12.2857 12.2735 12.0401 11.6315C11.6924 10.7147 10.4934 7.41713 10.2746 6.95021C10.1749 6.73377 9.81253 6.58057 9.46234 6.58057C9.17295 6.58057 8.88842 6.68757 8.76926 6.95021Z" fill="#FAE100"/>
<path d="M12.4753 7.14962C12.4753 8.2245 12.4826 11.6875 12.4826 11.6875C12.4826 11.6875 12.3829 12.3757 12.9739 12.3757C13.5648 12.3757 14.8732 12.3684 15.4544 12.3684C16.0356 12.3684 16.0307 11.133 15.4519 11.133C14.8732 11.133 13.8129 11.1257 13.8129 11.1257C13.8129 11.1257 13.8177 7.92295 13.8153 7.14476C13.8153 6.76782 13.4797 6.58057 13.1465 6.58057C12.8134 6.58057 12.4778 6.77025 12.4778 7.14719" fill="#FAE100"/>
<path d="M16.1889 6.97697C16.2011 7.44875 16.1743 11.7069 16.1743 12.0231C16.1743 12.5216 17.4437 12.5192 17.4413 12.0231C17.4413 11.4443 17.4413 10.3475 17.4413 10.3475L17.8134 10.0484L19.4427 12.2711C19.771 12.7064 20.807 11.9209 20.4787 11.4856L18.7497 9.20698C18.7497 9.20698 19.9242 7.93755 20.3863 7.47793C20.6562 7.21043 19.8197 6.36657 19.5497 6.63651C19.2871 6.89672 17.4486 8.73763 17.4486 8.73763C17.4486 8.73763 17.4656 7.5825 17.4486 6.94292C17.4413 6.69974 17.1446 6.58301 16.8406 6.58301C16.5148 6.58301 16.1816 6.71676 16.1889 6.97697Z" fill="#FAE100"/>
</g>
<defs>
<clipPath id="clip0_1093_1669">
<rect width="24" height="22.0496" fill="white"/>
</clipPath>
</defs>
</svg>
