<svg width="18" height="18" viewBox="0 0 18 18" fill="none" xmlns="http://www.w3.org/2000/svg">
<path d="M6.50033 0.666656C3.28854 0.666656 0.666992 3.2882 0.666992 6.49999C0.666992 9.71178 3.28854 12.3333 6.50033 12.3333C7.95699 12.3333 9.28783 11.79 10.3122 10.901L10.667 11.2558V12.3333L15.3219 16.9883C15.7819 17.4483 16.5286 17.4483 16.9886 16.9883C17.4486 16.5283 17.4486 15.7816 16.9886 15.3216L12.3337 10.6667H11.2562L10.9014 10.3118C11.7903 9.2875 12.3337 7.95666 12.3337 6.49999C12.3337 3.2882 9.71212 0.666656 6.50033 0.666656ZM6.50033 2.33332C8.81138 2.33332 10.667 4.18893 10.667 6.49999C10.667 8.81105 8.81138 10.6667 6.50033 10.6667C4.18927 10.6667 2.33366 8.81105 2.33366 6.49999C2.33366 4.18893 4.18927 2.33332 6.50033 2.33332Z" fill="#8E8E8E"/>
</svg>
