<svg width="24" height="24" viewBox="0 0 24 24" fill="none" xmlns="http://www.w3.org/2000/svg">
<path d="M3 11C3 8.61305 3.94822 6.32387 5.63605 4.63605C7.32387 2.94822 9.61305 2 12 2C14.3869 2 16.6762 2.94822 18.364 4.63605C20.0518 6.32387 21 8.61305 21 11" stroke="#5D5E62" stroke-width="1.5" stroke-linecap="round" stroke-linejoin="round"/>
<path d="M3 11C3 17.1 9.76 22 12 22C14.24 22 21 17.1 21 11" stroke="#5D5E62" stroke-width="1.5" stroke-linecap="round" stroke-linejoin="round"/>
<path d="M12 15C14.2091 15 16 13.2091 16 11C16 8.79086 14.2091 7 12 7C9.79086 7 8 8.79086 8 11C8 13.2091 9.79086 15 12 15Z" stroke="#5D5E62" stroke-width="1.5" stroke-linecap="round" stroke-linejoin="round"/>
</svg>
