<svg width="36" height="36" viewBox="0 0 36 36" fill="none" xmlns="http://www.w3.org/2000/svg">
<path d="M12 16.5C13.6569 16.5 15 15.1569 15 13.5C15 11.8431 13.6569 10.5 12 10.5C10.3431 10.5 9 11.8431 9 13.5C9 15.1569 10.3431 16.5 12 16.5Z" stroke="#DCDDE0" stroke-width="2" stroke-linecap="round" stroke-linejoin="round"/>
<path d="M9.84082 31.4999C18.1958 13.3499 25.1408 10.1699 33.0008 21.9449" stroke="#DCDDE0" stroke-width="2" stroke-linecap="round" stroke-linejoin="round"/>
<path d="M27 4.5H9C5.68629 4.5 3 7.18629 3 10.5V25.5C3 28.8137 5.68629 31.5 9 31.5H27C30.3137 31.5 33 28.8137 33 25.5V10.5C33 7.18629 30.3137 4.5 27 4.5Z" stroke="#DCDDE0" stroke-width="2" stroke-linecap="round" stroke-linejoin="round"/>
</svg>
