<svg width="68" height="68" viewBox="0 0 68 68" fill="none" xmlns="http://www.w3.org/2000/svg">
<path d="M34 28.75C36.7614 28.75 39 26.5114 39 23.75C39 20.9886 36.7614 18.75 34 18.75C31.2386 18.75 29 20.9886 29 23.75C29 26.5114 31.2386 28.75 34 28.75Z" stroke="#717275" stroke-width="1.5" stroke-linecap="round" stroke-linejoin="round"/>
<path d="M24 20.5C23.9985 19.6315 24.2796 18.7861 24.801 18.0916C25.3224 17.397 26.0556 16.891 26.89 16.65C27.7159 16.4084 28.4418 15.9069 28.96 15.22L29.8 14.1C30.1726 13.6032 30.6557 13.2 31.2112 12.9222C31.7666 12.6445 32.379 12.5 33 12.5H35C35.621 12.5 36.2334 12.6445 36.7889 12.9222C37.3443 13.2 37.8274 13.6032 38.2 14.1L39.05 15.22C39.5641 15.9111 40.2916 16.4137 41.12 16.65C41.9525 16.8928 42.6836 17.3996 43.203 18.094C43.7225 18.7884 44.0022 19.6328 44 20.5L43.33 28.5C43.2226 29.581 42.7226 30.5851 41.9246 31.3223C41.1266 32.0594 40.0861 32.4784 39 32.5H29C27.9139 32.4784 26.8734 32.0594 26.0754 31.3223C25.2775 30.5851 24.7775 29.581 24.67 28.5L24 20.5Z" stroke="#717275" stroke-width="1.5" stroke-linecap="round" stroke-linejoin="round"/>
<path d="M15.748 45.56H14.776V47.492C14.776 49.448 13.552 51.512 12.004 52.304L12.592 53.096C13.804 52.448 14.8 51.104 15.268 49.532C15.76 51.008 16.732 52.268 17.872 52.88L18.484 52.1C16.972 51.344 15.748 49.388 15.748 47.492V45.56ZM22.192 48.992H20.416V44.636H19.432V55.388H20.416V49.808H22.192V48.992ZM32.0071 44.636H31.0231V52.508H32.0071V44.636ZM29.7511 50.192C28.1671 49.664 27.0511 48.356 27.0511 46.904V46.316H29.4871V45.524H23.5831V46.316H26.0431V46.904C26.0431 48.44 24.9511 49.844 23.3191 50.408L23.8351 51.176C25.1071 50.72 26.1031 49.748 26.5591 48.524C27.0511 49.652 28.0351 50.54 29.2711 50.972L29.7511 50.192ZM26.0671 54.344V51.764H25.0831V55.148H32.3311V54.344H26.0671ZM35.1861 50.312C36.8541 50.06 38.4021 49.232 39.0861 48.068C39.7701 49.232 41.3061 50.06 42.9741 50.312L43.3221 49.52C41.4021 49.256 39.5781 48.068 39.5781 46.748H43.0101V45.956H39.5781V44.636H38.5941V45.956H35.1621V46.748H38.5821C38.5821 48.08 36.7701 49.256 34.8261 49.52L35.1861 50.312ZM43.9581 51.128H34.2261V51.932H38.5941V55.4H39.5781V51.932H43.9581V51.128ZM45.8292 45.776V46.592H49.7772C49.5492 49.136 48.0732 51.2 45.3252 52.58L45.8652 53.348C49.3452 51.608 50.7492 48.836 50.7492 45.776H45.8292ZM55.2612 48.992H53.5332V44.624H52.5492V55.388H53.5332V49.808H55.2612V48.992Z" fill="#717275"/>
<rect x="0.5" y="0.5" width="67" height="67" rx="7.5" stroke="#9A9B9F"/>
</svg>
