<svg width="24" height="24" viewBox="0 0 24 24" fill="none" xmlns="http://www.w3.org/2000/svg">
<path d="M12 18.25C14.7614 18.25 17 16.0114 17 13.25C17 10.4886 14.7614 8.25 12 8.25C9.23858 8.25 7 10.4886 7 13.25C7 16.0114 9.23858 18.25 12 18.25Z" stroke="#5D5E62" stroke-width="1.5" stroke-linecap="round" stroke-linejoin="round"/>
<path d="M2.00001 10C1.99847 9.13152 2.27963 8.28612 2.801 7.59155C3.32238 6.89699 4.05564 6.39103 4.89001 6.15002C5.71585 5.90841 6.44178 5.40688 6.96001 4.71997L7.80001 3.59998C8.1726 3.10319 8.65574 2.69995 9.21116 2.42224C9.76658 2.14453 10.379 2 11 2H13C13.621 2 14.2334 2.14453 14.7889 2.42224C15.3443 2.69995 15.8274 3.10319 16.2 3.59998L17.05 4.71997C17.5641 5.41113 18.2916 5.91375 19.12 6.15002C19.9525 6.39284 20.6836 6.89959 21.203 7.59399C21.7225 8.2884 22.0022 9.13281 22 10L21.33 18C21.2226 19.081 20.7226 20.0851 19.9246 20.8223C19.1266 21.5594 18.0861 21.9784 17 22H7.00001C5.91389 21.9784 4.87339 21.5594 4.07543 20.8223C3.27747 20.0851 2.77746 19.081 2.67002 18L2.00001 10Z" stroke="#5D5E62" stroke-width="1.5" stroke-linecap="round" stroke-linejoin="round"/>
</svg>
