<svg width="24" height="24" viewBox="0 0 24 24" fill="none" xmlns="http://www.w3.org/2000/svg">
<path d="M11.5 5H7.33333C6.44928 5 5.60148 5.35119 4.97636 5.97631C4.35124 6.60143 4 7.44928 4 8.33333V16.6667C4 17.5507 4.35124 18.3986 4.97636 19.0237C5.60148 19.6488 6.44928 20 7.33333 20H15.6667C16.5507 20 17.3986 19.6488 18.0237 19.0237C18.6488 18.3986 19 17.5507 19 16.6667V12.5" stroke="black" stroke-width="1.5" stroke-linecap="round" stroke-linejoin="round"/>
<path d="M12 13L20 5" stroke="black" stroke-width="1.5" stroke-linecap="round" stroke-linejoin="round"/>
<path d="M15 4H18.2487C18.7132 4 19.1586 4.18454 19.4871 4.51297C19.8155 4.8414 20 5.28683 20 5.75131V9" stroke="black" stroke-width="1.5" stroke-linecap="round" stroke-linejoin="round"/>
</svg>
