<svg width="335" height="144" viewBox="0 0 335 144" fill="none" xmlns="http://www.w3.org/2000/svg">
<rect width="335" height="144" rx="12" fill="#14308B"/>
<path opacity="0.9" d="M36.16 21.8H33.5V35.28H36.16V21.8ZM32.34 31C29.34 30.18 28 28.12 28 26.1V26H31.7V23.92H28V21.9H25.36V23.92H21.64V26H25.36V26.1C25.36 28.26 24.04 30.42 21.04 31.32L22.28 33.36C24.42 32.74 25.9 31.4 26.72 29.72C27.58 31.26 29.02 32.48 31.12 33.06L32.34 31ZM26.54 37.8V34.1H23.9V39.9H36.62V37.8H26.54ZM55.5184 30.7H53.0984C53.5584 28.12 53.5584 26.24 53.5584 24.52V22.86H40.7784V24.98H50.9784C50.9784 26.56 50.9384 28.36 50.4784 30.7H38.8784V32.82H45.7584V40.22H48.4384V32.82H55.5184V30.7ZM60.9969 34C59.9969 34 59.3969 32.62 59.3969 29.78C59.3969 26.96 59.9969 25.58 60.9969 25.58C62.0169 25.58 62.5969 26.96 62.5969 29.78C62.5969 32.62 62.0169 34 60.9969 34ZM66.4169 28.58H64.9569C64.6569 25.14 63.1769 23.1 60.9969 23.1C58.5569 23.1 57.0169 25.62 57.0169 29.78C57.0169 33.96 58.5569 36.48 60.9969 36.48C63.2369 36.48 64.7369 34.32 64.9769 30.72H66.4169V39.4H68.8769V22.1H66.4169V28.58ZM70.1569 21.78V40.2H72.6569V21.78H70.1569ZM84.3153 28.84H82.2553C82.6953 27.34 82.8553 25.72 82.8553 23.98H75.6353V26.08H80.2353C79.9153 29.68 78.2953 32.34 74.6153 34.54L76.1153 36.4C78.7153 34.88 80.3953 33.06 81.4353 30.96H84.3153V39.4H86.7753V22.2H84.3153V28.84ZM88.1953 21.78V40.2H90.6953V21.78H88.1953ZM111.125 29.06C111.645 27.16 111.645 25.6 111.645 24.14V22.62H98.885V24.7H109.005C109.005 25.92 108.945 27.16 108.525 28.8L111.125 29.06ZM105.205 38.24C102.725 38.24 101.305 37.74 101.305 36.76C101.305 35.76 102.725 35.26 105.205 35.26C107.705 35.26 109.125 35.76 109.125 36.76C109.125 37.74 107.705 38.24 105.205 38.24ZM105.205 33.28C101.245 33.28 98.685 34.6 98.685 36.76C98.685 38.9 101.245 40.22 105.205 40.22C109.185 40.22 111.745 38.9 111.745 36.76C111.745 34.6 109.185 33.28 105.205 33.28ZM105.805 30.04V26.82H103.165V30.04H97.025V32.12H113.605V30.04H105.805ZM123.283 24.52C125.683 24.52 127.223 25.24 127.223 26.54C127.223 27.86 125.683 28.56 123.283 28.56C120.863 28.56 119.323 27.86 119.323 26.54C119.323 25.24 120.863 24.52 123.283 24.52ZM123.283 30.66C127.203 30.66 129.943 29.06 129.943 26.54C129.943 24.04 127.203 22.42 123.283 22.42C119.343 22.42 116.623 24.04 116.623 26.54C116.623 29.06 119.343 30.66 123.283 30.66ZM131.663 32.04H114.983V34.18H118.763V40.2H121.423V34.18H125.123V40.2H127.803V34.18H131.663V32.04ZM138.302 34.3C137.062 34.3 136.142 33.46 136.142 32.06C136.142 30.66 137.062 29.8 138.302 29.8C139.542 29.8 140.442 30.66 140.442 32.04C140.442 33.46 139.542 34.3 138.302 34.3ZM138.302 27.66C135.622 27.66 133.622 29.48 133.622 32.04C133.622 34.64 135.622 36.46 138.302 36.46C140.962 36.46 142.942 34.64 142.942 32.04C142.942 29.48 140.962 27.66 138.302 27.66ZM139.602 22.12H136.962V24.52H132.882V26.62H143.602V24.52H139.602V22.12ZM150.082 29H147.442V21.8H144.802V40.22H147.442V31.18H150.082V29ZM165.32 33.96C166.06 30.04 166.06 27.44 166.06 25.14V23.38H152.68V25.48H163.42C163.42 27.62 163.38 30.18 162.68 33.66L165.32 33.96ZM159.52 35.88V29.54H156.88V35.88H151V38H167.66V35.88H159.52ZM33.62 59.4H36.26V45.8H33.62V49.72H30.24V51.86H33.62V59.4ZM31.86 54.68C28.98 53.68 27.74 51.32 27.74 48.92V46.92H25.06V48.9C25.06 51.52 23.78 54.08 20.74 55.1L22.12 57.16C24.26 56.38 25.68 54.88 26.46 52.98C27.22 54.68 28.54 56.02 30.46 56.72L31.86 54.68ZM26.74 61.8V58.04H24.1V63.9H36.66V61.8H26.74ZM50.7984 50.1H43.4984V48.36H50.7984V50.1ZM53.3784 46.34H40.9184V52.12H53.3784V46.34ZM55.4984 55.18V53.1H38.8584V55.18H45.8384V56.34H40.7584V58.28H50.8784V59.24H40.7784V64.08H53.9584V62.1H43.3984V61.06H53.4784V56.34H48.4784V55.18H55.4984ZM67.7481 53.58H64.1281V51.22H67.7481V53.58ZM70.3481 46.88H67.7481V49.2H64.1281V46.88H61.5281V55.64H70.3481V46.88ZM66.1481 59.44H75.6081V57.34H63.5281V64H75.9481V61.9H66.1481V59.44ZM75.4881 49.98V45.8H72.8481V56.54H75.4881V52.16H77.9281V49.98H75.4881ZM83.9266 57.84C82.5466 57.84 81.6266 56.38 81.6266 53.64C81.6266 50.92 82.5466 49.46 83.9266 49.46C85.2866 49.46 86.2266 50.92 86.2266 53.64C86.2266 56.38 85.2866 57.84 83.9266 57.84ZM83.9266 47.08C81.1266 47.08 79.0866 49.6 79.0866 53.64C79.0866 57.7 81.1266 60.24 83.9266 60.24C86.7066 60.24 88.7666 57.7 88.7666 53.64C88.7666 49.6 86.7066 47.08 83.9266 47.08ZM96.0866 52.74H93.4066V45.8H90.7666V64.22H93.4066V54.92H96.0866V52.74ZM101.365 51.88H109.245V54.46H101.365V51.88ZM106.625 59.94V56.56H111.845V46.94H109.245V49.8H101.365V46.94H98.745V56.56H103.985V59.94H96.985V62.08H113.665V59.94H106.625ZM120.863 47.4H118.323V50.5C118.323 53.64 117.343 56.94 114.643 58.58L116.223 60.56C117.883 59.56 118.963 57.8 119.603 55.76C120.183 57.62 121.163 59.18 122.723 60.14L124.163 58.1C121.663 56.44 120.863 53.38 120.863 50.4V47.4ZM124.543 52.02H122.243V54.16H124.543V63.4H127.003V46.1H124.543V52.02ZM128.283 45.8V64.22H130.783V45.8H128.283ZM139.282 56.42C139.922 56.54 140.582 56.6 141.302 56.6C142.022 56.6 142.702 56.54 143.342 56.42V59.94H139.282V56.42ZM141.302 48.78C143.862 48.78 145.582 49.82 145.582 51.66C145.582 53.48 143.862 54.54 141.302 54.54C138.742 54.54 137.042 53.48 137.042 51.66C137.042 49.82 138.742 48.78 141.302 48.78ZM145.962 59.94V55.44C147.342 54.58 148.182 53.26 148.182 51.66C148.182 48.64 145.282 46.7 141.302 46.7C137.342 46.7 134.442 48.64 134.442 51.66C134.422 53.26 135.262 54.58 136.662 55.44V59.94H132.982V62.08H149.662V59.94H145.962ZM152.86 57.46H154.78L155.2 50.08L155.3 47.3H152.34L152.44 50.08L152.86 57.46ZM153.82 62.78C154.86 62.78 155.66 61.94 155.66 60.86C155.66 59.78 154.86 58.94 153.82 58.94C152.78 58.94 152 59.78 152 60.86C152 61.94 152.78 62.78 153.82 62.78Z" fill="white"/>
<path opacity="0.9" d="M21.484 81.336V82.26H26.202C25.964 85.242 24.284 87.65 20.91 89.26L21.526 90.198C25.698 88.154 27.364 84.962 27.364 81.336H21.484ZM29.898 79.978V92.536H31.046V79.978H29.898ZM40.5649 86.53H37.4429V82.162H40.5649V86.53ZM36.2949 86.53H34.3769V87.468H43.6309V86.53H41.7129V82.162H43.6589V81.238H34.3489V82.162H36.2949V86.53ZM33.3409 89.974V90.926H44.7229V89.974H33.3409ZM47.8718 85.564H52.3658V84.64H47.8718V82.05H52.8278V81.112H46.7378V89.512H47.7318C50.1258 89.512 51.8058 89.428 53.7658 89.092L53.6538 88.154C51.7778 88.49 50.1538 88.574 47.8718 88.574V85.564ZM55.0958 79.978V92.522H56.2438V79.978H55.0958ZM59.5747 83.128L59.7427 84.094L67.2887 83.744C67.2467 84.332 67.1627 84.976 67.0087 85.718L68.1427 85.802C68.4927 84.08 68.4927 82.82 68.4927 81.658V80.58H59.8827V81.518H67.3587V81.658C67.3587 82.05 67.3587 82.442 67.3447 82.876L59.5747 83.128ZM61.1287 88.644H59.9807V92.34H68.7587V91.402H61.1287V88.644ZM64.3067 86.642V84.822H63.1587V86.642H58.5527V87.566H69.8787V86.642H64.3067ZM79.1965 85.606H75.6405V83.506H79.1965V85.606ZM80.3165 80.678H79.1965V82.596H75.6405V80.678H74.5065V86.53H80.3165V80.678ZM77.0405 88.938H83.8445V88.014H75.8925V92.354H84.0685V91.43H77.0405V88.938ZM83.7325 83.002V79.992H82.5845V87.328H83.7325V83.954H85.5945V83.002H83.7325ZM89.9334 88.686C88.7154 88.686 87.8614 87.37 87.8614 85.326C87.8614 83.296 88.7154 81.98 89.9334 81.98C91.1374 81.98 91.9914 83.296 91.9914 85.326C91.9914 87.37 91.1374 88.686 89.9334 88.686ZM89.9334 80.944C88.0854 80.944 86.7694 82.652 86.7694 85.326C86.7694 88 88.0854 89.708 89.9334 89.708C91.7814 89.708 93.0834 88 93.0834 85.326C93.0834 82.652 91.7814 80.944 89.9334 80.944ZM98.3194 84.99H96.2474V79.992H95.0994V92.536H96.2474V85.956H98.3194V84.99ZM101.664 84.052H108.076V86.362H101.664V84.052ZM105.444 89.988V87.286H109.196V80.874H108.076V83.114H101.664V80.874H100.53V87.286H104.282V89.988H99.1863V90.926H110.568V89.988H105.444ZM115.509 81.168H114.403V83.562C114.403 85.718 113.367 87.972 111.645 88.98L112.359 89.848C113.605 89.078 114.515 87.65 114.963 85.984C115.411 87.51 116.251 88.84 117.441 89.568L118.099 88.672C116.447 87.664 115.509 85.536 115.509 83.52V81.168ZM118.813 84.486H116.741V85.438H118.813V91.92H119.891V80.258H118.813V84.486ZM121.361 79.978V92.536H122.453V79.978H121.361ZM128.318 87.02C128.836 87.146 129.438 87.216 130.054 87.216C130.684 87.216 131.286 87.146 131.818 87.02V89.974H128.318V87.02ZM130.054 81.672C132.07 81.672 133.526 82.596 133.526 83.996C133.526 85.396 132.07 86.32 130.054 86.32C128.038 86.32 126.596 85.396 126.596 83.996C126.596 82.596 128.038 81.672 130.054 81.672ZM132.966 89.974V86.572C134.002 86.026 134.618 85.13 134.618 83.996C134.618 82.036 132.728 80.776 130.054 80.776C127.394 80.776 125.49 82.036 125.49 83.996C125.49 85.13 126.12 86.04 127.17 86.586V89.974H124.37V90.926H135.78V89.974H132.966Z" fill="white" fill-opacity="0.87"/>
<path opacity="0.8" d="M20.868 120.912H26.706V119.96H22.422L23.892 118.476C25.516 116.824 26.496 115.704 26.496 114.08C26.496 112.4 25.474 111.35 23.584 111.35C22.52 111.35 21.568 111.826 20.98 112.204L21.302 113.086C21.848 112.708 22.604 112.316 23.402 112.316C24.732 112.316 25.334 112.932 25.334 114.178C25.334 115.522 24.438 116.544 23.108 117.93L20.868 120.254V120.912ZM27.5908 122.34H28.5568L31.8468 110.692H30.8808L27.5908 122.34ZM35.2112 121.052C37.2972 121.052 38.6272 119.904 38.6272 118.266C38.6272 116.81 37.7032 116.124 36.4852 115.886C37.5492 115.536 38.2772 114.85 38.2772 113.688C38.2772 112.218 37.1292 111.364 35.4492 111.364C34.6372 111.364 33.5312 111.714 32.9712 112.092L33.1392 112.988C33.7272 112.652 34.4552 112.316 35.2252 112.316C36.3732 112.316 37.1152 112.722 37.1152 113.87C37.1152 114.92 36.2892 115.536 35.0712 115.536H34.2312V116.488H35.1412C36.5692 116.488 37.4932 117.062 37.4932 118.266C37.4932 119.428 36.6252 120.114 35.0712 120.114C34.3712 120.114 33.4332 119.848 32.9012 119.498L32.6632 120.38C33.1812 120.744 34.1192 121.052 35.2112 121.052Z" fill="white"/>
<path d="M239.016 31.1572C239.016 31.1572 243.425 32.391 242.434 36.7971L227.346 98.1348C227.346 98.1348 226.298 104.442 220.588 102.798L239.016 31.1572Z" fill="#849BCE"/>
<path d="M189.931 94.0838L220.588 102.798C221.982 103.1 223.443 102.063 223.835 100.494L240.603 34.4964C240.995 32.9271 240.173 31.3951 238.778 31.0915L207.539 25.1907C206.145 24.8889 204.684 25.9256 204.293 27.4949L188.107 90.6806C187.715 92.2499 188.537 93.782 189.933 94.0855L189.931 94.0838Z" fill="url(#paint0_linear_103_2488)"/>
<path d="M220.99 101.146C221.544 101.206 222.127 100.72 222.292 100.059L239.061 34.0597C239.144 33.7259 239.106 33.3886 238.957 33.133C238.878 32.9963 238.729 32.8223 238.474 32.762L207.241 26.8629L207.221 26.8594C207.194 26.854 207.166 26.8487 207.139 26.8451C206.585 26.7848 206.002 27.2712 205.837 27.9316L205.823 27.9831L189.644 91.1368C189.568 91.4635 189.606 91.7919 189.753 92.0422C189.834 92.1807 189.986 92.3582 190.251 92.4168L220.908 101.131C220.935 101.137 220.963 101.142 220.99 101.146V101.146Z" fill="url(#paint1_linear_103_2488)"/>
<path d="M240.255 42.2685C240.303 42.0767 240.522 41.9969 240.666 42.1229C240.883 42.3128 241.101 42.6963 240.951 43.4437L239.296 50.2534C239.259 50.4097 239.104 50.4984 238.961 50.4452L238.483 50.2676C238.356 50.2197 238.285 50.0759 238.318 49.9375L240.255 42.2685V42.2685Z" fill="#90A5D3"/>
<path d="M236.307 58.4638C236.261 58.6573 236.416 58.8401 236.599 58.8046C236.875 58.7514 237.24 58.5313 237.453 57.8016L239.137 50.896C239.177 50.7398 239.082 50.5818 238.932 50.5534L238.466 50.3812C238.333 50.3563 238.205 50.4433 238.171 50.5836L236.307 58.4638V58.4638Z" fill="#90A5D3"/>
<g opacity="0.5">
<path d="M210.594 33.9887C210.541 34.5319 210.096 34.9526 209.601 34.9295C209.106 34.9065 208.75 34.4467 208.805 33.9034C208.858 33.3602 209.303 32.9395 209.798 32.9626C210.292 32.9857 210.649 33.4454 210.594 33.9887Z" stroke="#B3B4B7" stroke-miterlimit="10"/>
<path d="M207.449 36.0835C207.449 36.0835 209.401 34.1343 210.877 36.6765" stroke="#B3B4B7" stroke-miterlimit="10"/>
<path d="M211.513 35.9646C212.314 34.7141 212.077 33.0563 210.984 32.2618C209.891 31.4673 208.356 31.837 207.556 33.0875C206.756 34.338 206.993 35.9959 208.085 36.7904C209.178 37.5849 210.713 37.2152 211.513 35.9646Z" stroke="url(#paint2_linear_103_2488)" stroke-miterlimit="10"/>
<path d="M211.513 35.9646C212.314 34.7141 212.077 33.0563 210.984 32.2618C209.891 31.4673 208.356 31.837 207.556 33.0875C206.756 34.338 206.993 35.9959 208.085 36.7904C209.178 37.5849 210.713 37.2152 211.513 35.9646Z" stroke="url(#paint3_linear_103_2488)" stroke-miterlimit="10"/>
<path d="M213.664 34.6101L223.663 36.7439" stroke="#B3B4B7" stroke-miterlimit="10"/>
<path d="M213.321 35.874L221.065 37.5126" stroke="#B3B4B7" stroke-miterlimit="10"/>
<path d="M232.366 39.1528C232.345 39.2665 232.248 39.341 232.148 39.3197C232.048 39.2984 231.985 39.1901 232.006 39.0765C232.028 38.9629 232.125 38.8883 232.225 38.9096C232.325 38.9309 232.388 39.0392 232.366 39.1528Z" fill="#B3B4B7"/>
<path d="M233.361 39.364C233.339 39.4776 233.242 39.5522 233.142 39.5309C233.042 39.5096 232.979 39.4013 233.001 39.2877C233.022 39.1741 233.119 39.0995 233.219 39.1208C233.319 39.1421 233.382 39.2504 233.361 39.364Z" fill="#B3B4B7"/>
<path d="M234.272 39.5381C234.25 39.6517 234.153 39.7263 234.054 39.705C233.954 39.6837 233.89 39.5754 233.912 39.4618C233.934 39.3481 234.03 39.2736 234.13 39.2949C234.23 39.3162 234.293 39.4245 234.272 39.5381Z" fill="#B3B4B7"/>
</g>
<path style="mix-blend-mode:multiply" opacity="0.4" d="M202.97 39.1155L236.154 45.9235L227.676 78.8699L194.87 70.7412L202.97 39.1155Z" fill="url(#paint4_linear_103_2488)"/>
<g opacity="0.6">
<path d="M203.446 74.4763C203.779 74.4763 204.114 74.4728 204.447 74.4763C204.606 74.4781 204.619 74.5083 204.539 74.6556C204.204 75.2716 203.869 75.8859 203.533 76.5019C203.511 76.5409 203.5 76.6066 203.448 76.6048C203.395 76.603 203.395 76.5374 203.376 76.4948C203.375 76.4894 203.371 76.4841 203.37 76.4788C203.165 75.806 202.855 75.1953 202.404 74.6734C202.367 74.6308 202.307 74.5793 202.327 74.5207C202.355 74.4461 202.435 74.4745 202.495 74.4745C202.812 74.4728 203.128 74.4745 203.446 74.4745V74.4781V74.4763ZM203.466 76.3101C203.743 75.8024 204.001 75.3302 204.258 74.858C203.898 75.0302 203.566 75.2326 203.235 75.4367C203.183 75.4687 203.168 75.5148 203.191 75.5752C203.278 75.8077 203.365 76.0421 203.466 76.3119V76.3101ZM204.134 74.6965C204.113 74.6734 204.104 74.6609 204.096 74.6592C203.628 74.6379 203.16 74.6681 202.692 74.6325C202.585 74.6237 202.593 74.6769 202.645 74.7497C202.767 74.9148 202.888 75.0817 203.01 75.2468C203.047 75.2965 203.083 75.3409 203.151 75.3C203.476 75.0994 203.801 74.9006 204.133 74.6982L204.134 74.6965Z" fill="#B3B4B7"/>
<path d="M200.075 73.406C200.741 73.4025 201.278 74.0788 201.118 74.7623C201.054 75.0321 201.071 75.2682 201.161 75.515C201.183 75.5736 201.231 75.6464 201.183 75.7014C201.136 75.7546 201.064 75.7085 201.006 75.6925C200.758 75.6286 200.521 75.5984 200.258 75.6623C199.638 75.8097 199.059 75.3108 199.001 74.6221C198.947 73.9901 199.46 73.4096 200.073 73.4078L200.075 73.406ZM200.012 73.5676C199.685 73.5818 199.394 73.7735 199.232 74.1552C199.079 74.5173 199.134 74.8706 199.367 75.1741C199.612 75.4937 199.943 75.6038 200.313 75.4901C200.493 75.4351 200.653 75.4387 200.826 75.4866C200.988 75.531 201.011 75.5026 200.953 75.3286C200.896 75.1653 200.891 75.0197 200.951 74.844C201.159 74.2244 200.7 73.564 200.013 73.5658L200.012 73.5676Z" fill="#B3B4B7"/>
<path d="M196.505 72.4917C196.62 72.5219 196.745 72.5911 196.837 72.7118C196.895 72.7882 196.947 72.7899 197.027 72.7509C197.297 72.6177 197.553 72.6532 197.763 72.8752C197.981 73.1059 198.001 73.4006 197.911 73.7006C197.825 73.9882 197.63 74.1924 197.413 74.3717C197.18 74.5669 196.915 74.7019 196.649 74.8386C196.567 74.8812 196.499 74.8758 196.435 74.8013C196.167 74.4888 195.909 74.1675 195.762 73.7663C195.659 73.4841 195.619 73.1965 195.746 72.9053C195.886 72.5858 196.172 72.4171 196.504 72.4899L196.505 72.4917ZM197.778 73.5764C197.83 73.319 197.808 73.0953 197.61 72.9408C197.435 72.8041 197.233 72.7864 197.053 72.9195C196.912 73.0225 196.838 73.0118 196.747 72.8556C196.639 72.671 196.46 72.6071 196.259 72.639C196.067 72.6692 195.947 72.8024 195.882 72.9888C195.806 73.2107 195.801 73.4343 195.882 73.6598C196.016 74.0344 196.245 74.3379 196.487 74.6344C196.545 74.7054 196.595 74.6965 196.664 74.661C196.908 74.535 197.148 74.3965 197.36 74.2137C197.56 74.0415 197.74 73.8498 197.776 73.5746L197.778 73.5764Z" fill="#B3B4B7"/>
</g>
<path d="M192.768 90.3291C192.764 89.7113 193.127 89.3758 193.584 89.0988C193.805 88.9639 194.01 88.7935 194.217 88.6337C194.322 88.5538 194.383 88.5627 194.443 88.6941C194.648 89.1414 194.86 89.5852 195.075 90.0273C195.126 90.1356 195.134 90.2367 195.106 90.3504C195.01 90.7445 194.913 91.1368 194.826 91.5344C194.79 91.6995 194.723 91.7528 194.561 91.7049C193.94 91.5202 194.017 91.6516 194.16 91.0072C194.238 90.6592 194.165 90.4622 193.924 90.3965C193.729 90.3415 193.547 90.4373 193.484 90.6415C193.43 90.8137 193.392 90.993 193.351 91.1687C193.319 91.3019 193.254 91.3516 193.121 91.3143C192.458 91.1226 192.561 91.2575 192.699 90.6149C192.719 90.519 192.744 90.4249 192.768 90.3291V90.3291Z" fill="#B3B4B7"/>
<g opacity="0.6">
<path d="M212.085 94.515C212.2 94.5505 212.324 94.6286 212.413 94.7564C212.468 94.8363 212.521 94.8434 212.604 94.8079C212.886 94.6872 213.146 94.7369 213.349 94.973C213.56 95.2198 213.567 95.5215 213.461 95.8216C213.359 96.1091 213.151 96.3062 212.921 96.4784C212.674 96.6648 212.398 96.7891 212.12 96.9133C212.035 96.9524 211.966 96.9435 211.905 96.8636C211.645 96.5316 211.4 96.189 211.268 95.7736C211.177 95.4789 211.149 95.186 211.292 94.8967C211.45 94.5771 211.75 94.4227 212.083 94.515H212.085ZM213.329 95.6884C213.394 95.4292 213.382 95.2002 213.187 95.0316C213.016 94.8842 212.811 94.8541 212.623 94.9801C212.474 95.0777 212.399 95.0618 212.315 94.8984C212.213 94.7049 212.035 94.6304 211.828 94.6517C211.632 94.673 211.503 94.8008 211.428 94.989C211.34 95.2109 211.325 95.4381 211.395 95.6724C211.513 96.0612 211.733 96.3825 211.965 96.6967C212.02 96.7713 212.071 96.766 212.145 96.734C212.401 96.6186 212.651 96.4908 212.874 96.3168C213.086 96.1517 213.279 95.9653 213.329 95.6884V95.6884Z" fill="#B3B4B7"/>
</g>
<path d="M201.013 91.8079C201.014 92.0404 200.958 92.2588 200.823 92.4381C200.728 92.5623 200.755 92.6369 200.846 92.7381C200.998 92.9032 201.136 93.0825 201.279 93.2564C201.313 93.2973 201.361 93.3505 201.316 93.4038C201.258 93.4712 201.206 93.4056 201.169 93.363C201.036 93.2085 200.898 93.0558 200.778 92.8907C200.671 92.7416 200.58 92.7274 200.418 92.8197C199.887 93.1233 199.244 92.9085 198.956 92.3511C198.661 91.7848 198.841 91.0853 199.372 90.764C199.732 90.5474 200.107 90.5474 200.463 90.7658C200.836 90.993 201.018 91.3498 201.014 91.8096L201.013 91.8079ZM200.838 91.7937C200.844 91.2256 200.46 90.8066 199.927 90.7995C199.402 90.7924 198.997 91.2114 198.991 91.7706C198.984 92.3333 199.389 92.7665 199.925 92.77C200.431 92.7736 200.833 92.344 200.838 91.7937Z" fill="#B3B4B7"/>
<path d="M217.978 97.6838C218.151 97.7264 218.326 97.7619 218.498 97.8152C218.929 97.9519 219.099 98.3282 218.937 98.7703C218.917 98.8235 218.902 98.8839 218.832 98.8697C218.762 98.8555 218.769 98.7933 218.771 98.7365C218.791 98.3128 218.605 98.0513 218.213 97.9519C217.95 97.8862 217.688 97.8187 217.423 97.7566C217.112 97.6838 216.937 97.801 216.844 98.1276C216.82 98.2093 216.839 98.3708 216.707 98.3318C216.584 98.2963 216.66 98.1614 216.68 98.0762C216.769 97.6856 217.062 97.4815 217.438 97.5507C217.62 97.5844 217.798 97.6377 217.978 97.6838V97.6838Z" fill="#B3B4B7"/>
<path d="M217.995 97.611C217.65 97.524 217.44 97.1689 217.523 96.8121C217.606 96.4588 217.953 96.2352 218.286 96.3204C218.609 96.4038 218.821 96.766 218.747 97.1121C218.671 97.4725 218.333 97.6962 217.995 97.611ZM218.568 97.066C218.622 96.7997 218.476 96.5529 218.228 96.4979C217.985 96.4446 217.741 96.6115 217.691 96.8654C217.64 97.1317 217.785 97.3678 218.039 97.4299C218.291 97.492 218.511 97.3394 218.568 97.0642V97.066Z" fill="#B3B4B7"/>
<path d="M205.16 93.5458C205.214 93.3435 205.264 93.1393 205.322 92.9387C205.419 92.6139 205.708 92.4292 206.018 92.5127C206.406 92.6192 206.794 92.7346 207.178 92.8624C207.492 92.9671 207.656 93.2849 207.574 93.6293C207.479 94.0305 207.372 94.4281 207.257 94.824C207.153 95.1862 206.856 95.3548 206.511 95.2572C206.141 95.1524 205.775 95.0424 205.409 94.9252C205.072 94.8187 204.912 94.4991 205.004 94.1334C205.052 93.9364 205.107 93.7411 205.159 93.5458H205.16ZM206.563 92.8659C206.391 92.8145 206.221 92.763 206.05 92.7115C206.037 92.7079 206.025 92.7044 206.012 92.7008C205.752 92.6334 205.557 92.747 205.478 93.0239C205.372 93.4074 205.27 93.7908 205.172 94.1778C205.099 94.4654 205.21 94.6713 205.482 94.7566C205.828 94.8648 206.176 94.9696 206.526 95.0708C206.811 95.1524 207.009 95.0459 207.094 94.7495C207.206 94.3678 207.306 93.9826 207.401 93.5956C207.467 93.3222 207.349 93.1145 207.091 93.0293C206.916 92.9707 206.736 92.921 206.56 92.8677L206.563 92.8659Z" fill="#B3B4B7"/>
<path d="M206.465 93.1926C206.528 93.2192 206.516 93.276 206.508 93.3328C206.486 93.4962 206.35 93.6666 206.431 93.8121C206.506 93.9453 206.704 93.9187 206.843 93.979C206.884 93.9968 206.941 94.011 206.929 94.0731C206.916 94.153 206.853 94.1299 206.803 94.1228C206.649 94.1015 206.488 93.9506 206.353 94.0465C206.235 94.1299 206.256 94.3412 206.2 94.4903C206.18 94.5435 206.16 94.6039 206.09 94.579C206.036 94.5595 206.035 94.5027 206.045 94.4548C206.065 94.3518 206.086 94.2489 206.118 94.1494C206.168 93.9985 206.135 93.9098 205.98 93.8761C205.883 93.8565 205.79 93.8192 205.697 93.7855C205.657 93.7713 205.622 93.7411 205.637 93.6932C205.65 93.6453 205.695 93.6417 205.735 93.6506C205.767 93.6559 205.8 93.6648 205.832 93.6737C206.079 93.74 206.244 93.6394 206.325 93.3719C206.338 93.3257 206.356 93.2796 206.378 93.237C206.395 93.205 206.423 93.1873 206.463 93.1926H206.465Z" fill="#B3B4B7"/>
<g opacity="0.6">
<path d="M194.648 76.4592L224.374 83.7004" stroke="#B3B4B7" stroke-miterlimit="10"/>
<path d="M194.21 78.2522L219.574 84.5045" stroke="#B3B4B7" stroke-miterlimit="10"/>
</g>
<g opacity="0.6">
<path d="M193.717 80.1411L223.445 87.3823" stroke="#B3B4B7" stroke-miterlimit="10"/>
<path d="M193.279 81.9341L218.643 88.1864" stroke="#B3B4B7" stroke-miterlimit="10"/>
</g>
<g opacity="0.6">
<path d="M192.777 83.823L222.504 91.0642" stroke="#B3B4B7" stroke-miterlimit="10"/>
<path d="M192.338 85.616L217.703 91.8683" stroke="#B3B4B7" stroke-miterlimit="10"/>
</g>
<path d="M207.686 46.5006C207.686 46.5006 195.07 48.1657 189.688 49.2486C189.688 49.2486 186.713 49.7191 186.206 53.5393C186.206 53.5393 185.69 63.809 188.415 70.6046C188.415 70.6046 189.343 73.69 194.865 72.9231C194.865 72.9231 196.286 72.5538 197.48 74.2616L200.235 78.2896C200.235 78.2896 201.512 80.024 202.747 77.173L204.289 73.342C204.289 73.342 204.696 71.7922 207.079 71.62C207.079 71.62 212.654 71.352 213.129 67.1731C213.129 67.1731 213.999 57.7147 212.08 50.2463C212.08 50.2463 211.362 46.1544 207.686 46.5041V46.5006Z" fill="url(#paint5_linear_103_2488)"/>
<path d="M197.155 53.7453C197.155 53.7453 198.779 50.9689 202.23 51.5352C202.23 51.5352 206.176 51.9186 206.213 57.5337C206.213 57.5337 206.103 62.8878 199.532 68.0324C199.024 68.43 198.358 68.5223 197.778 68.2596C195.791 67.3596 191.222 64.7873 189.661 59.6196C189.661 59.6196 187.977 54.5318 192.748 52.5684C192.748 52.5684 195.571 51.5476 197.155 53.7453V53.7453Z" fill="#FCDBE0"/>
<path d="M256.259 106.361C255.058 105.919 253.456 103.082 253.456 103.082L245.77 87.8455L242.355 89.1005L242.049 88.5112L240.133 89.9172L238.714 90.4391L238.952 90.7835L235.293 93.4676L236.276 95.3689C236.276 95.3689 236.525 95.8251 236.96 95.7665C236.96 95.7665 242.988 105.589 245.778 111.106C245.778 111.106 246.718 114.24 248.029 113.81L257.472 111.009L259.537 108.74C260.147 107.421 256.257 106.361 256.257 106.361H256.259Z" fill="url(#paint6_linear_103_2488)"/>
<path d="M256.259 106.361C255.058 105.919 253.456 103.082 253.456 103.082L245.77 87.8455L242.355 89.1005L250.717 105.213C252.881 108.481 253.749 108.504 253.749 108.504C256.814 109.629 257.473 111.01 257.473 111.01L259.539 108.742C260.148 107.423 256.259 106.363 256.259 106.363V106.361Z" fill="url(#paint7_linear_103_2488)"/>
<path d="M250.016 46.939C250.016 46.939 248.402 60.5106 231.577 69.6317L221.369 76.1344C221.369 76.1344 215.258 81.1174 219.968 89.4752C219.968 89.4752 225.62 99.2905 234.868 93.1961L244.269 88.5521C244.269 88.5521 258.528 81.1228 268.154 86.42L250.016 46.939V46.939Z" fill="url(#paint8_linear_103_2488)"/>
<path d="M278.696 87.7327C285.762 84.0221 286.283 69.7509 279.86 55.8569C273.437 41.963 262.501 33.7078 255.435 37.4184C248.369 41.1289 247.847 55.4002 254.271 69.2941C260.694 83.1881 271.629 91.4433 278.696 87.7327Z" fill="#F45876"/>
<path d="M276.083 83.56C274.149 84.1334 271.209 83.015 268.22 80.5652C264.484 77.5029 261 72.7293 258.408 67.1232C255.674 61.2117 254.215 54.8723 254.403 49.7295C254.55 45.7139 255.698 42.7617 257.473 41.8279C257.657 41.7321 257.85 41.654 258.048 41.5936C259.982 41.0202 262.922 42.1386 265.91 44.5884C269.646 47.6507 273.131 52.4243 275.723 58.0304C278.456 63.942 279.915 70.2813 279.727 75.4241C279.58 79.4397 278.433 82.3919 276.657 83.3257C276.474 83.4215 276.281 83.4997 276.083 83.56V83.56Z" fill="url(#paint9_radial_103_2488)"/>
<path d="M239.089 64.526C239.089 64.526 238.118 65.3799 237.034 66.161C237.034 66.161 232.648 70.4304 237.508 80.4392C237.508 80.4392 242.66 89.0135 248.444 86.775C248.444 86.775 249.286 86.4714 249.791 86.3098C249.791 86.3098 249.833 87.1673 246.215 88.9798L233.672 95.1452C233.672 95.1452 227.302 98.7098 221.396 88.852C221.396 88.852 216.359 78.4545 222.757 73.5637L235.05 65.7243C235.05 65.7243 237.933 63.7999 239.089 64.526V64.526Z" fill="url(#paint10_linear_103_2488)"/>
<path d="M282.914 48.5438C282.499 48.5438 282.086 48.3645 281.784 48.0095C281.22 47.3455 281.268 46.3194 281.891 45.7176L294.803 33.2626C295.426 32.6608 296.389 32.7123 296.954 33.3762C297.518 34.0402 297.47 35.0663 296.847 35.6681L283.935 48.1231C283.643 48.4036 283.278 48.542 282.914 48.542V48.5438Z" fill="url(#paint11_linear_103_2488)"/>
<path d="M286.347 60.1093C285.96 59.946 285.639 59.6175 285.482 59.1702C285.187 58.3305 285.587 57.3967 286.373 57.0825L305.316 49.3532C306.103 49.039 306.98 49.465 307.274 50.3029C307.569 51.1426 307.169 52.0764 306.383 52.3906L287.441 60.1199C287.073 60.2673 286.685 60.2513 286.347 60.1093V60.1093Z" fill="url(#paint12_linear_103_2488)"/>
<path d="M277.057 41.1055C276.659 41.2298 276.214 41.1819 275.833 40.9316C275.116 40.4629 274.892 39.4652 275.33 38.7001L280.632 29.5736C281.071 28.8103 282.007 28.5706 282.725 29.0375C283.442 29.5062 283.667 30.5039 283.228 31.269L277.927 40.3954C277.722 40.7523 277.407 40.9955 277.057 41.1037V41.1055Z" fill="url(#paint13_linear_103_2488)"/>
<path d="M288.657 69.8767C288.369 69.5572 288.206 69.1152 288.237 68.6394C288.297 67.7465 289.023 67.0719 289.863 67.1358L299.905 67.94C300.743 68.0021 301.376 68.7779 301.316 69.6726C301.256 70.5655 300.53 71.2401 299.691 71.1762L289.648 70.372C289.257 70.3418 288.91 70.1572 288.657 69.8767V69.8767Z" fill="url(#paint14_linear_103_2488)"/>
<defs>
<linearGradient id="paint0_linear_103_2488" x1="212.773" y1="59.5552" x2="192.712" y2="25.4682" gradientUnits="userSpaceOnUse">
<stop stop-color="#9DB3E0"/>
<stop offset="1" stop-color="#BCCFE8"/>
</linearGradient>
<linearGradient id="paint1_linear_103_2488" x1="228.642" y1="117.3" x2="213.79" y2="67.1862" gradientUnits="userSpaceOnUse">
<stop offset="0.04" stop-color="#E8E9E4"/>
<stop offset="1" stop-color="#FEFEFE"/>
</linearGradient>
<linearGradient id="paint2_linear_103_2488" x1="207.002" y1="34.4795" x2="212.069" y2="34.5674" gradientUnits="userSpaceOnUse">
<stop stop-color="#6F84C1"/>
<stop offset="1" stop-color="#E03D63"/>
</linearGradient>
<linearGradient id="paint3_linear_103_2488" x1="207.002" y1="34.4795" x2="212.069" y2="34.5674" gradientUnits="userSpaceOnUse">
<stop stop-color="#6F84C1"/>
<stop offset="1" stop-color="#E03D63"/>
</linearGradient>
<linearGradient id="paint4_linear_103_2488" x1="204.684" y1="40.9724" x2="228.707" y2="74.8825" gradientUnits="userSpaceOnUse">
<stop stop-color="#6F84C1"/>
<stop offset="1" stop-color="#E03D63"/>
</linearGradient>
<linearGradient id="paint5_linear_103_2488" x1="185.193" y1="49.7728" x2="221.683" y2="71.206" gradientUnits="userSpaceOnUse">
<stop stop-color="#F77493"/>
<stop offset="0.66" stop-color="#E5396B"/>
<stop offset="1" stop-color="#F45876"/>
</linearGradient>
<linearGradient id="paint6_linear_103_2488" x1="251.429" y1="98.8079" x2="229.032" y2="109.975" gradientUnits="userSpaceOnUse">
<stop offset="0.04" stop-color="#F77493"/>
<stop offset="0.66" stop-color="#E5396B"/>
</linearGradient>
<linearGradient id="paint7_linear_103_2488" x1="247.168" y1="90.8012" x2="256.835" y2="108.438" gradientUnits="userSpaceOnUse">
<stop stop-color="#E5396B"/>
<stop offset="0.25" stop-color="#EA507C"/>
<stop offset="1" stop-color="#E5396B"/>
</linearGradient>
<linearGradient id="paint8_linear_103_2488" x1="232.714" y1="63.5299" x2="248.538" y2="92.3939" gradientUnits="userSpaceOnUse">
<stop stop-color="#F77493"/>
<stop offset="0.66" stop-color="#E5396B"/>
<stop offset="1" stop-color="#F45876"/>
</linearGradient>
<radialGradient id="paint9_radial_103_2488" cx="0" cy="0" r="1" gradientUnits="userSpaceOnUse" gradientTransform="translate(251.86 62.1249) rotate(-52.4958) scale(23.741 29.2472)">
<stop offset="0.23" stop-color="#66182A"/>
<stop offset="1" stop-color="#F45876"/>
</radialGradient>
<linearGradient id="paint10_linear_103_2488" x1="228.738" y1="73.376" x2="238.163" y2="90.5681" gradientUnits="userSpaceOnUse">
<stop stop-color="#667DC4"/>
<stop offset="0.6" stop-color="#4864AA"/>
<stop offset="1" stop-color="#385396"/>
</linearGradient>
<linearGradient id="paint11_linear_103_2488" x1="290.511" y1="42.0678" x2="288.513" y2="39.9503" gradientUnits="userSpaceOnUse">
<stop stop-color="#9DB3E0"/>
<stop offset="1" stop-color="#BCCFE8"/>
</linearGradient>
<linearGradient id="paint12_linear_103_2488" x1="296.985" y1="56.5586" x2="295.856" y2="53.6307" gradientUnits="userSpaceOnUse">
<stop stop-color="#9DB3E0"/>
<stop offset="1" stop-color="#BCCFE8"/>
</linearGradient>
<linearGradient id="paint13_linear_103_2488" x1="280.685" y1="35.9198" x2="278.32" y2="34.5261" gradientUnits="userSpaceOnUse">
<stop stop-color="#9DB3E0"/>
<stop offset="1" stop-color="#BCCFE8"/>
</linearGradient>
<linearGradient id="paint14_linear_103_2488" x1="294.629" y1="70.9112" x2="294.881" y2="68.0473" gradientUnits="userSpaceOnUse">
<stop stop-color="#9DB3E0"/>
<stop offset="1" stop-color="#BCCFE8"/>
</linearGradient>
</defs>
</svg>
