<svg width="335" height="144" viewBox="0 0 335 144" fill="none" xmlns="http://www.w3.org/2000/svg">
<rect width="335" height="144" rx="12" fill="#14308B"/>
<path opacity="0.9" d="M36.16 21.8H33.5V35.28H36.16V21.8ZM32.34 31C29.34 30.18 28 28.12 28 26.1V26H31.7V23.92H28V21.9H25.36V23.92H21.64V26H25.36V26.1C25.36 28.26 24.04 30.42 21.04 31.32L22.28 33.36C24.42 32.74 25.9 31.4 26.72 29.72C27.58 31.26 29.02 32.48 31.12 33.06L32.34 31ZM26.54 37.8V34.1H23.9V39.9H36.62V37.8H26.54ZM55.5184 30.7H53.0984C53.5584 28.12 53.5584 26.24 53.5584 24.52V22.86H40.7784V24.98H50.9784C50.9784 26.56 50.9384 28.36 50.4784 30.7H38.8784V32.82H45.7584V40.22H48.4384V32.82H55.5184V30.7ZM60.9969 34C59.9969 34 59.3969 32.62 59.3969 29.78C59.3969 26.96 59.9969 25.58 60.9969 25.58C62.0169 25.58 62.5969 26.96 62.5969 29.78C62.5969 32.62 62.0169 34 60.9969 34ZM66.4169 28.58H64.9569C64.6569 25.14 63.1769 23.1 60.9969 23.1C58.5569 23.1 57.0169 25.62 57.0169 29.78C57.0169 33.96 58.5569 36.48 60.9969 36.48C63.2369 36.48 64.7369 34.32 64.9769 30.72H66.4169V39.4H68.8769V22.1H66.4169V28.58ZM70.1569 21.78V40.2H72.6569V21.78H70.1569ZM84.3153 28.84H82.2553C82.6953 27.34 82.8553 25.72 82.8553 23.98H75.6353V26.08H80.2353C79.9153 29.68 78.2953 32.34 74.6153 34.54L76.1153 36.4C78.7153 34.88 80.3953 33.06 81.4353 30.96H84.3153V39.4H86.7753V22.2H84.3153V28.84ZM88.1953 21.78V40.2H90.6953V21.78H88.1953ZM111.125 29.06C111.645 27.16 111.645 25.6 111.645 24.14V22.62H98.885V24.7H109.005C109.005 25.92 108.945 27.16 108.525 28.8L111.125 29.06ZM105.205 38.24C102.725 38.24 101.305 37.74 101.305 36.76C101.305 35.76 102.725 35.26 105.205 35.26C107.705 35.26 109.125 35.76 109.125 36.76C109.125 37.74 107.705 38.24 105.205 38.24ZM105.205 33.28C101.245 33.28 98.685 34.6 98.685 36.76C98.685 38.9 101.245 40.22 105.205 40.22C109.185 40.22 111.745 38.9 111.745 36.76C111.745 34.6 109.185 33.28 105.205 33.28ZM105.805 30.04V26.82H103.165V30.04H97.025V32.12H113.605V30.04H105.805ZM123.283 24.52C125.683 24.52 127.223 25.24 127.223 26.54C127.223 27.86 125.683 28.56 123.283 28.56C120.863 28.56 119.323 27.86 119.323 26.54C119.323 25.24 120.863 24.52 123.283 24.52ZM123.283 30.66C127.203 30.66 129.943 29.06 129.943 26.54C129.943 24.04 127.203 22.42 123.283 22.42C119.343 22.42 116.623 24.04 116.623 26.54C116.623 29.06 119.343 30.66 123.283 30.66ZM131.663 32.04H114.983V34.18H118.763V40.2H121.423V34.18H125.123V40.2H127.803V34.18H131.663V32.04ZM138.302 34.3C137.062 34.3 136.142 33.46 136.142 32.06C136.142 30.66 137.062 29.8 138.302 29.8C139.542 29.8 140.442 30.66 140.442 32.04C140.442 33.46 139.542 34.3 138.302 34.3ZM138.302 27.66C135.622 27.66 133.622 29.48 133.622 32.04C133.622 34.64 135.622 36.46 138.302 36.46C140.962 36.46 142.942 34.64 142.942 32.04C142.942 29.48 140.962 27.66 138.302 27.66ZM139.602 22.12H136.962V24.52H132.882V26.62H143.602V24.52H139.602V22.12ZM150.082 29H147.442V21.8H144.802V40.22H147.442V31.18H150.082V29ZM165.32 33.96C166.06 30.04 166.06 27.44 166.06 25.14V23.38H152.68V25.48H163.42C163.42 27.62 163.38 30.18 162.68 33.66L165.32 33.96ZM159.52 35.88V29.54H156.88V35.88H151V38H167.66V35.88H159.52ZM33.62 59.4H36.26V45.8H33.62V49.72H30.24V51.86H33.62V59.4ZM31.86 54.68C28.98 53.68 27.74 51.32 27.74 48.92V46.92H25.06V48.9C25.06 51.52 23.78 54.08 20.74 55.1L22.12 57.16C24.26 56.38 25.68 54.88 26.46 52.98C27.22 54.68 28.54 56.02 30.46 56.72L31.86 54.68ZM26.74 61.8V58.04H24.1V63.9H36.66V61.8H26.74ZM50.7984 50.1H43.4984V48.36H50.7984V50.1ZM53.3784 46.34H40.9184V52.12H53.3784V46.34ZM55.4984 55.18V53.1H38.8584V55.18H45.8384V56.34H40.7584V58.28H50.8784V59.24H40.7784V64.08H53.9584V62.1H43.3984V61.06H53.4784V56.34H48.4784V55.18H55.4984ZM67.7481 53.58H64.1281V51.22H67.7481V53.58ZM70.3481 46.88H67.7481V49.2H64.1281V46.88H61.5281V55.64H70.3481V46.88ZM66.1481 59.44H75.6081V57.34H63.5281V64H75.9481V61.9H66.1481V59.44ZM75.4881 49.98V45.8H72.8481V56.54H75.4881V52.16H77.9281V49.98H75.4881ZM83.9266 57.84C82.5466 57.84 81.6266 56.38 81.6266 53.64C81.6266 50.92 82.5466 49.46 83.9266 49.46C85.2866 49.46 86.2266 50.92 86.2266 53.64C86.2266 56.38 85.2866 57.84 83.9266 57.84ZM83.9266 47.08C81.1266 47.08 79.0866 49.6 79.0866 53.64C79.0866 57.7 81.1266 60.24 83.9266 60.24C86.7066 60.24 88.7666 57.7 88.7666 53.64C88.7666 49.6 86.7066 47.08 83.9266 47.08ZM96.0866 52.74H93.4066V45.8H90.7666V64.22H93.4066V54.92H96.0866V52.74ZM101.365 51.88H109.245V54.46H101.365V51.88ZM106.625 59.94V56.56H111.845V46.94H109.245V49.8H101.365V46.94H98.745V56.56H103.985V59.94H96.985V62.08H113.665V59.94H106.625ZM120.863 47.4H118.323V50.5C118.323 53.64 117.343 56.94 114.643 58.58L116.223 60.56C117.883 59.56 118.963 57.8 119.603 55.76C120.183 57.62 121.163 59.18 122.723 60.14L124.163 58.1C121.663 56.44 120.863 53.38 120.863 50.4V47.4ZM124.543 52.02H122.243V54.16H124.543V63.4H127.003V46.1H124.543V52.02ZM128.283 45.8V64.22H130.783V45.8H128.283ZM139.282 56.42C139.922 56.54 140.582 56.6 141.302 56.6C142.022 56.6 142.702 56.54 143.342 56.42V59.94H139.282V56.42ZM141.302 48.78C143.862 48.78 145.582 49.82 145.582 51.66C145.582 53.48 143.862 54.54 141.302 54.54C138.742 54.54 137.042 53.48 137.042 51.66C137.042 49.82 138.742 48.78 141.302 48.78ZM145.962 59.94V55.44C147.342 54.58 148.182 53.26 148.182 51.66C148.182 48.64 145.282 46.7 141.302 46.7C137.342 46.7 134.442 48.64 134.442 51.66C134.422 53.26 135.262 54.58 136.662 55.44V59.94H132.982V62.08H149.662V59.94H145.962ZM152.86 57.46H154.78L155.2 50.08L155.3 47.3H152.34L152.44 50.08L152.86 57.46ZM153.82 62.78C154.86 62.78 155.66 61.94 155.66 60.86C155.66 59.78 154.86 58.94 153.82 58.94C152.78 58.94 152 59.78 152 60.86C152 61.94 152.78 62.78 153.82 62.78Z" fill="white"/>
<path opacity="0.9" d="M21.484 81.336V82.26H26.202C25.964 85.242 24.284 87.65 20.91 89.26L21.526 90.198C25.698 88.154 27.364 84.962 27.364 81.336H21.484ZM29.898 79.978V92.536H31.046V79.978H29.898ZM40.5649 86.53H37.4429V82.162H40.5649V86.53ZM36.2949 86.53H34.3769V87.468H43.6309V86.53H41.7129V82.162H43.6589V81.238H34.3489V82.162H36.2949V86.53ZM33.3409 89.974V90.926H44.7229V89.974H33.3409ZM47.8718 85.564H52.3658V84.64H47.8718V82.05H52.8278V81.112H46.7378V89.512H47.7318C50.1258 89.512 51.8058 89.428 53.7658 89.092L53.6538 88.154C51.7778 88.49 50.1538 88.574 47.8718 88.574V85.564ZM55.0958 79.978V92.522H56.2438V79.978H55.0958ZM59.5747 83.128L59.7427 84.094L67.2887 83.744C67.2467 84.332 67.1627 84.976 67.0087 85.718L68.1427 85.802C68.4927 84.08 68.4927 82.82 68.4927 81.658V80.58H59.8827V81.518H67.3587V81.658C67.3587 82.05 67.3587 82.442 67.3447 82.876L59.5747 83.128ZM61.1287 88.644H59.9807V92.34H68.7587V91.402H61.1287V88.644ZM64.3067 86.642V84.822H63.1587V86.642H58.5527V87.566H69.8787V86.642H64.3067ZM79.1965 85.606H75.6405V83.506H79.1965V85.606ZM80.3165 80.678H79.1965V82.596H75.6405V80.678H74.5065V86.53H80.3165V80.678ZM77.0405 88.938H83.8445V88.014H75.8925V92.354H84.0685V91.43H77.0405V88.938ZM83.7325 83.002V79.992H82.5845V87.328H83.7325V83.954H85.5945V83.002H83.7325ZM89.9334 88.686C88.7154 88.686 87.8614 87.37 87.8614 85.326C87.8614 83.296 88.7154 81.98 89.9334 81.98C91.1374 81.98 91.9914 83.296 91.9914 85.326C91.9914 87.37 91.1374 88.686 89.9334 88.686ZM89.9334 80.944C88.0854 80.944 86.7694 82.652 86.7694 85.326C86.7694 88 88.0854 89.708 89.9334 89.708C91.7814 89.708 93.0834 88 93.0834 85.326C93.0834 82.652 91.7814 80.944 89.9334 80.944ZM98.3194 84.99H96.2474V79.992H95.0994V92.536H96.2474V85.956H98.3194V84.99ZM101.664 84.052H108.076V86.362H101.664V84.052ZM105.444 89.988V87.286H109.196V80.874H108.076V83.114H101.664V80.874H100.53V87.286H104.282V89.988H99.1863V90.926H110.568V89.988H105.444ZM115.509 81.168H114.403V83.562C114.403 85.718 113.367 87.972 111.645 88.98L112.359 89.848C113.605 89.078 114.515 87.65 114.963 85.984C115.411 87.51 116.251 88.84 117.441 89.568L118.099 88.672C116.447 87.664 115.509 85.536 115.509 83.52V81.168ZM118.813 84.486H116.741V85.438H118.813V91.92H119.891V80.258H118.813V84.486ZM121.361 79.978V92.536H122.453V79.978H121.361ZM128.318 87.02C128.836 87.146 129.438 87.216 130.054 87.216C130.684 87.216 131.286 87.146 131.818 87.02V89.974H128.318V87.02ZM130.054 81.672C132.07 81.672 133.526 82.596 133.526 83.996C133.526 85.396 132.07 86.32 130.054 86.32C128.038 86.32 126.596 85.396 126.596 83.996C126.596 82.596 128.038 81.672 130.054 81.672ZM132.966 89.974V86.572C134.002 86.026 134.618 85.13 134.618 83.996C134.618 82.036 132.728 80.776 130.054 80.776C127.394 80.776 125.49 82.036 125.49 83.996C125.49 85.13 126.12 86.04 127.17 86.586V89.974H124.37V90.926H135.78V89.974H132.966Z" fill="white" fill-opacity="0.87"/>
<path opacity="0.8" d="M23.262 121.052C25.348 121.052 26.678 119.904 26.678 118.266C26.678 116.81 25.754 116.124 24.536 115.886C25.6 115.536 26.328 114.85 26.328 113.688C26.328 112.218 25.18 111.364 23.5 111.364C22.688 111.364 21.582 111.714 21.022 112.092L21.19 112.988C21.778 112.652 22.506 112.316 23.276 112.316C24.424 112.316 25.166 112.722 25.166 113.87C25.166 114.92 24.34 115.536 23.122 115.536H22.282V116.488H23.192C24.62 116.488 25.544 117.062 25.544 118.266C25.544 119.428 24.676 120.114 23.122 120.114C22.422 120.114 21.484 119.848 20.952 119.498L20.714 120.38C21.232 120.744 22.17 121.052 23.262 121.052ZM27.6319 122.34H28.5979L31.8879 110.692H30.9219L27.6319 122.34ZM35.2522 121.052C37.3382 121.052 38.6682 119.904 38.6682 118.266C38.6682 116.81 37.7442 116.124 36.5262 115.886C37.5902 115.536 38.3182 114.85 38.3182 113.688C38.3182 112.218 37.1702 111.364 35.4902 111.364C34.6782 111.364 33.5722 111.714 33.0122 112.092L33.1802 112.988C33.7682 112.652 34.4962 112.316 35.2662 112.316C36.4142 112.316 37.1562 112.722 37.1562 113.87C37.1562 114.92 36.3302 115.536 35.1122 115.536H34.2722V116.488H35.1822C36.6102 116.488 37.5342 117.062 37.5342 118.266C37.5342 119.428 36.6662 120.114 35.1122 120.114C34.4122 120.114 33.4742 119.848 32.9422 119.498L32.7042 120.38C33.2222 120.744 34.1602 121.052 35.2522 121.052Z" fill="white"/>
<path d="M239.016 31.1573C239.016 31.1573 243.425 32.3911 242.434 36.7972L227.346 98.1349C227.346 98.1349 226.298 104.442 220.588 102.798L239.016 31.1573Z" fill="#849BCE"/>
<path d="M189.931 94.0838L220.588 102.798C221.982 103.1 223.443 102.063 223.835 100.494L240.603 34.4965C240.995 32.9272 240.173 31.3952 238.778 31.0916L207.539 25.1908C206.145 24.889 204.684 25.9257 204.293 27.495L188.107 90.6807C187.715 92.25 188.537 93.7821 189.933 94.0856L189.931 94.0838Z" fill="url(#paint0_linear_1689_3871)"/>
<path d="M220.989 101.146C221.544 101.206 222.127 100.72 222.292 100.059L239.061 34.0598C239.144 33.7261 239.106 33.3888 238.957 33.1331C238.877 32.9964 238.729 32.8225 238.474 32.7621L207.241 26.863L207.221 26.8595C207.194 26.8541 207.166 26.8488 207.139 26.8453C206.584 26.7849 206.001 27.2713 205.837 27.9317L205.823 27.9832L189.644 91.1369C189.568 91.4636 189.606 91.792 189.753 92.0423C189.834 92.1808 189.986 92.3583 190.251 92.4169L220.908 101.131C220.934 101.137 220.963 101.142 220.989 101.146Z" fill="url(#paint1_linear_1689_3871)"/>
<path d="M240.255 42.2685C240.303 42.0767 240.521 41.9969 240.666 42.1229C240.883 42.3128 241.101 42.6963 240.951 43.4437L239.295 50.2534C239.259 50.4097 239.104 50.4984 238.961 50.4452L238.483 50.2676C238.356 50.2197 238.284 50.0759 238.318 49.9375L240.255 42.2685Z" fill="#90A5D3"/>
<path d="M236.307 58.4639C236.261 58.6574 236.415 58.8402 236.599 58.8047C236.875 58.7515 237.24 58.5313 237.453 57.8017L239.137 50.8961C239.177 50.7399 239.082 50.5819 238.932 50.5535L238.466 50.3813C238.333 50.3564 238.204 50.4434 238.171 50.5836L236.307 58.4639Z" fill="#90A5D3"/>
<g opacity="0.5">
<path d="M210.594 33.9888C210.541 34.532 210.096 34.9527 209.601 34.9297C209.106 34.9066 208.75 34.4468 208.805 33.9036C208.858 33.3603 209.303 32.9396 209.798 32.9627C210.292 32.9858 210.649 33.4456 210.594 33.9888Z" stroke="#B3B4B7" stroke-miterlimit="10"/>
<path d="M207.449 36.0836C207.449 36.0836 209.401 34.1344 210.877 36.6765" stroke="#B3B4B7" stroke-miterlimit="10"/>
<path d="M211.513 35.9647C212.314 34.7142 212.077 33.0564 210.984 32.2619C209.891 31.4674 208.356 31.8371 207.556 33.0876C206.756 34.3382 206.993 35.996 208.085 36.7905C209.178 37.585 210.713 37.2153 211.513 35.9647Z" stroke="url(#paint2_linear_1689_3871)" stroke-miterlimit="10"/>
<path d="M211.513 35.9647C212.314 34.7142 212.077 33.0564 210.984 32.2619C209.891 31.4674 208.356 31.8371 207.556 33.0876C206.756 34.3382 206.993 35.996 208.085 36.7905C209.178 37.585 210.713 37.2153 211.513 35.9647Z" stroke="url(#paint3_linear_1689_3871)" stroke-miterlimit="10"/>
<path d="M213.664 34.6101L223.663 36.744" stroke="#B3B4B7" stroke-miterlimit="10"/>
<path d="M213.321 35.8741L221.064 37.5126" stroke="#B3B4B7" stroke-miterlimit="10"/>
<path d="M232.366 39.1529C232.345 39.2666 232.248 39.3411 232.148 39.3198C232.048 39.2985 231.985 39.1902 232.006 39.0766C232.028 38.963 232.125 38.8884 232.225 38.9097C232.325 38.931 232.388 39.0393 232.366 39.1529Z" fill="#B3B4B7"/>
<path d="M233.361 39.3642C233.339 39.4778 233.242 39.5524 233.142 39.531C233.042 39.5097 232.979 39.4015 233.001 39.2878C233.022 39.1742 233.119 39.0997 233.219 39.121C233.319 39.1423 233.382 39.2506 233.361 39.3642Z" fill="#B3B4B7"/>
<path d="M234.272 39.5382C234.25 39.6518 234.153 39.7263 234.054 39.705C233.954 39.6837 233.89 39.5754 233.912 39.4618C233.934 39.3482 234.03 39.2737 234.13 39.295C234.23 39.3163 234.293 39.4245 234.272 39.5382Z" fill="#B3B4B7"/>
</g>
<path style="mix-blend-mode:multiply" opacity="0.4" d="M202.97 39.1157L236.154 45.9237L227.676 78.8701L194.87 70.7414L202.97 39.1157Z" fill="url(#paint4_linear_1689_3871)"/>
<g opacity="0.6">
<path d="M203.446 74.4764C203.779 74.4764 204.114 74.4729 204.447 74.4764C204.606 74.4782 204.619 74.5084 204.539 74.6557C204.204 75.2718 203.869 75.886 203.533 76.502C203.511 76.541 203.5 76.6067 203.448 76.6049C203.395 76.6032 203.395 76.5375 203.376 76.4949C203.375 76.4896 203.371 76.4842 203.37 76.4789C203.165 75.8061 202.855 75.1954 202.404 74.6735C202.367 74.6309 202.307 74.5794 202.327 74.5208C202.355 74.4463 202.435 74.4747 202.495 74.4747C202.812 74.4729 203.128 74.4747 203.446 74.4747V74.4782V74.4764ZM203.466 76.3103C203.743 75.8025 204.001 75.3303 204.258 74.8581C203.898 75.0303 203.566 75.2327 203.235 75.4368C203.183 75.4688 203.168 75.515 203.191 75.5753C203.278 75.8079 203.365 76.0422 203.466 76.312V76.3103ZM204.134 74.6966C204.113 74.6735 204.104 74.6611 204.096 74.6593C203.628 74.638 203.16 74.6682 202.692 74.6327C202.585 74.6238 202.593 74.6771 202.645 74.7498C202.767 74.9149 202.888 75.0818 203.01 75.2469C203.047 75.2966 203.083 75.341 203.151 75.3002C203.476 75.0996 203.801 74.9007 204.133 74.6984L204.134 74.6966Z" fill="#B3B4B7"/>
<path d="M200.075 73.406C200.741 73.4024 201.278 74.0788 201.118 74.7622C201.054 75.0321 201.071 75.2682 201.161 75.5149C201.183 75.5735 201.231 75.6463 201.183 75.7013C201.136 75.7546 201.064 75.7084 201.006 75.6925C200.758 75.6285 200.521 75.5984 200.258 75.6623C199.639 75.8096 199.059 75.3108 199.001 74.622C198.947 73.99 199.46 73.4095 200.073 73.4077L200.075 73.406ZM200.012 73.5675C199.685 73.5817 199.394 73.7734 199.232 74.1551C199.079 74.5173 199.134 74.8705 199.367 75.1741C199.612 75.4936 199.943 75.6037 200.313 75.4901C200.493 75.435 200.653 75.4386 200.826 75.4865C200.988 75.5309 201.011 75.5025 200.953 75.3285C200.896 75.1652 200.891 75.0196 200.951 74.8439C201.159 74.2243 200.7 73.564 200.013 73.5657L200.012 73.5675Z" fill="#B3B4B7"/>
<path d="M196.505 72.4917C196.62 72.5219 196.745 72.5911 196.837 72.7119C196.895 72.7882 196.947 72.79 197.027 72.7509C197.297 72.6178 197.553 72.6533 197.763 72.8752C197.981 73.106 198.001 73.4006 197.911 73.7007C197.825 73.9883 197.63 74.1924 197.413 74.3717C197.18 74.567 196.915 74.7019 196.649 74.8386C196.567 74.8812 196.499 74.8759 196.436 74.8013C196.167 74.4889 195.909 74.1675 195.763 73.7663C195.659 73.4841 195.619 73.1965 195.746 72.9054C195.886 72.5858 196.172 72.4172 196.504 72.49L196.505 72.4917ZM197.778 73.5764C197.83 73.319 197.808 73.0953 197.61 72.9409C197.435 72.8042 197.233 72.7864 197.053 72.9196C196.912 73.0225 196.839 73.0119 196.747 72.8557C196.639 72.671 196.46 72.6071 196.259 72.6391C196.067 72.6693 195.947 72.8024 195.882 72.9888C195.806 73.2107 195.801 73.4344 195.882 73.6598C196.016 74.0344 196.246 74.338 196.487 74.6344C196.545 74.7054 196.595 74.6966 196.664 74.6611C196.909 74.535 197.148 74.3966 197.36 74.2137C197.56 74.0415 197.74 73.8498 197.776 73.5746L197.778 73.5764Z" fill="#B3B4B7"/>
</g>
<path d="M192.768 90.3292C192.764 89.7115 193.127 89.3759 193.584 89.099C193.805 88.9641 194.01 88.7937 194.217 88.6339C194.322 88.554 194.383 88.5629 194.443 88.6942C194.648 89.1416 194.86 89.5854 195.075 90.0274C195.126 90.1357 195.135 90.2369 195.106 90.3505C195.01 90.7446 194.913 91.137 194.826 91.5346C194.79 91.6997 194.723 91.753 194.562 91.705C193.94 91.5204 194.017 91.6518 194.16 91.0074C194.238 90.6594 194.165 90.4624 193.924 90.3967C193.729 90.3417 193.547 90.4375 193.484 90.6417C193.431 90.8139 193.392 90.9932 193.351 91.1689C193.319 91.3021 193.254 91.3518 193.121 91.3145C192.458 91.1228 192.561 91.2577 192.699 90.615C192.719 90.5192 192.744 90.4251 192.768 90.3292Z" fill="#B3B4B7"/>
<g opacity="0.6">
<path d="M212.085 94.5152C212.2 94.5507 212.325 94.6288 212.413 94.7567C212.468 94.8365 212.521 94.8436 212.604 94.8081C212.886 94.6874 213.146 94.7371 213.349 94.9732C213.561 95.22 213.567 95.5218 213.461 95.8218C213.359 96.1094 213.151 96.3064 212.921 96.4786C212.674 96.665 212.398 96.7893 212.12 96.9136C212.035 96.9526 211.966 96.9437 211.905 96.8639C211.645 96.5319 211.4 96.1893 211.269 95.7739C211.177 95.4792 211.149 95.1863 211.292 94.8969C211.45 94.5774 211.75 94.4229 212.083 94.5152H212.085ZM213.329 95.6887C213.394 95.4295 213.382 95.2005 213.187 95.0318C213.016 94.8845 212.811 94.8543 212.623 94.9803C212.475 95.078 212.4 95.062 212.315 94.8987C212.213 94.7052 212.035 94.6306 211.828 94.6519C211.632 94.6732 211.503 94.801 211.428 94.9892C211.34 95.2111 211.325 95.4383 211.395 95.6727C211.513 96.0615 211.733 96.3828 211.965 96.697C212.02 96.7715 212.071 96.7662 212.145 96.7343C212.401 96.6189 212.651 96.4911 212.874 96.3171C213.086 96.152 213.279 95.9656 213.329 95.6887Z" fill="#B3B4B7"/>
</g>
<path d="M201.013 91.808C201.015 92.0405 200.958 92.2589 200.823 92.4382C200.728 92.5625 200.755 92.637 200.846 92.7382C200.998 92.9033 201.136 93.0826 201.279 93.2566C201.313 93.2974 201.361 93.3507 201.316 93.4039C201.258 93.4714 201.206 93.4057 201.169 93.3631C201.036 93.2086 200.898 93.056 200.778 92.8909C200.671 92.7418 200.58 92.7276 200.418 92.8199C199.887 93.1234 199.244 92.9086 198.956 92.3512C198.661 91.7849 198.841 91.0855 199.372 90.7642C199.732 90.5476 200.107 90.5476 200.463 90.7659C200.836 90.9932 201.018 91.35 201.015 91.8098L201.013 91.808ZM200.838 91.7938C200.845 91.2257 200.46 90.8068 199.927 90.7997C199.402 90.7926 198.997 91.2115 198.991 91.7707C198.984 92.3335 199.389 92.7666 199.925 92.7702C200.432 92.7737 200.833 92.3441 200.838 91.7938Z" fill="#B3B4B7"/>
<path d="M217.978 97.684C218.151 97.7266 218.326 97.7621 218.498 97.8154C218.929 97.9521 219.099 98.3284 218.938 98.7705C218.918 98.8237 218.903 98.8841 218.833 98.8699C218.763 98.8557 218.769 98.7935 218.771 98.7367C218.791 98.313 218.605 98.0515 218.213 97.9521C217.95 97.8864 217.688 97.8189 217.423 97.7568C217.112 97.684 216.937 97.8012 216.844 98.1278C216.82 98.2095 216.839 98.371 216.707 98.332C216.584 98.2965 216.661 98.1615 216.681 98.0763C216.769 97.6858 217.062 97.4816 217.438 97.5509C217.62 97.5846 217.798 97.6379 217.978 97.684Z" fill="#B3B4B7"/>
<path d="M217.995 97.6112C217.65 97.5242 217.44 97.1692 217.523 96.8124C217.607 96.4591 217.953 96.2354 218.286 96.3206C218.609 96.4041 218.821 96.7662 218.748 97.1124C218.671 97.4728 218.333 97.6964 217.995 97.6112ZM218.568 97.0662C218.623 96.7999 218.476 96.5532 218.228 96.4982C217.985 96.4449 217.742 96.6118 217.692 96.8656C217.64 97.1319 217.785 97.368 218.04 97.4302C218.291 97.4923 218.511 97.3396 218.568 97.0645V97.0662Z" fill="#B3B4B7"/>
<path d="M205.16 93.5459C205.214 93.3436 205.264 93.1394 205.322 92.9388C205.419 92.6139 205.708 92.4293 206.018 92.5128C206.406 92.6193 206.794 92.7347 207.178 92.8625C207.492 92.9672 207.656 93.285 207.574 93.6294C207.479 94.0306 207.372 94.4282 207.257 94.8241C207.153 95.1862 206.856 95.3549 206.511 95.2573C206.141 95.1525 205.775 95.0425 205.409 94.9253C205.072 94.8188 204.912 94.4992 205.004 94.1335C205.052 93.9365 205.107 93.7412 205.159 93.5459H205.16ZM206.563 92.866C206.391 92.8145 206.221 92.7631 206.05 92.7116C206.037 92.708 206.025 92.7045 206.012 92.7009C205.752 92.6335 205.557 92.7471 205.478 93.024C205.372 93.4075 205.27 93.7909 205.172 94.1779C205.099 94.4655 205.21 94.6714 205.482 94.7566C205.828 94.8649 206.176 94.9697 206.526 95.0709C206.811 95.1525 207.009 95.046 207.094 94.7495C207.206 94.3679 207.306 93.9826 207.401 93.5956C207.467 93.3223 207.349 93.1146 207.091 93.0293C206.916 92.9708 206.736 92.9211 206.56 92.8678L206.563 92.866Z" fill="#B3B4B7"/>
<path d="M206.465 93.1927C206.528 93.2193 206.516 93.2761 206.508 93.3329C206.486 93.4962 206.35 93.6667 206.431 93.8122C206.506 93.9454 206.705 93.9187 206.843 93.9791C206.884 93.9968 206.941 94.011 206.929 94.0732C206.916 94.1531 206.853 94.13 206.803 94.1229C206.65 94.1016 206.488 93.9507 206.353 94.0465C206.235 94.13 206.256 94.3412 206.2 94.4904C206.18 94.5436 206.16 94.604 206.09 94.5791C206.037 94.5596 206.035 94.5028 206.045 94.4549C206.065 94.3519 206.087 94.2489 206.118 94.1495C206.168 93.9986 206.135 93.9099 205.98 93.8761C205.883 93.8566 205.79 93.8193 205.697 93.7856C205.657 93.7714 205.622 93.7412 205.637 93.6933C205.65 93.6453 205.695 93.6418 205.735 93.6507C205.767 93.656 205.8 93.6649 205.832 93.6738C206.079 93.74 206.244 93.6394 206.325 93.372C206.338 93.3258 206.356 93.2796 206.378 93.237C206.395 93.2051 206.423 93.1873 206.463 93.1927H206.465Z" fill="#B3B4B7"/>
<g opacity="0.6">
<path d="M194.648 76.4594L224.374 83.7005" stroke="#B3B4B7" stroke-miterlimit="10"/>
<path d="M194.21 78.2524L219.574 84.5047" stroke="#B3B4B7" stroke-miterlimit="10"/>
</g>
<g opacity="0.6">
<path d="M193.717 80.1412L223.445 87.3824" stroke="#B3B4B7" stroke-miterlimit="10"/>
<path d="M193.279 81.9342L218.642 88.1865" stroke="#B3B4B7" stroke-miterlimit="10"/>
</g>
<g opacity="0.6">
<path d="M192.778 83.823L222.504 91.0642" stroke="#B3B4B7" stroke-miterlimit="10"/>
<path d="M192.338 85.616L217.703 91.8684" stroke="#B3B4B7" stroke-miterlimit="10"/>
</g>
<path d="M207.685 46.5006C207.685 46.5006 195.069 48.1658 189.688 49.2487C189.688 49.2487 186.713 49.7191 186.206 53.5394C186.206 53.5394 185.69 63.8091 188.415 70.6047C188.415 70.6047 189.343 73.69 194.865 72.9231C194.865 72.9231 196.285 72.5539 197.48 74.2617L200.235 78.2896C200.235 78.2896 201.512 80.024 202.747 77.173L204.289 73.3421C204.289 73.3421 204.696 71.7923 207.079 71.6201C207.079 71.6201 212.654 71.3521 213.129 67.1732C213.129 67.1732 213.998 57.7147 212.08 50.2464C212.08 50.2464 211.362 46.1545 207.685 46.5042V46.5006Z" fill="url(#paint5_linear_1689_3871)"/>
<path d="M197.155 53.7453C197.155 53.7453 198.779 50.9689 202.23 51.5352C202.23 51.5352 206.176 51.9186 206.213 57.5337C206.213 57.5337 206.103 62.8878 199.532 68.0324C199.024 68.43 198.358 68.5223 197.778 68.2596C195.791 67.3596 191.222 64.7873 189.661 59.6196C189.661 59.6196 187.977 54.5318 192.748 52.5684C192.748 52.5684 195.571 51.5476 197.155 53.7453Z" fill="#FCDBE0"/>
<path d="M256.259 106.361C255.058 105.919 253.456 103.082 253.456 103.082L245.77 87.8457L242.356 89.1008L242.049 88.5114L240.133 89.9174L238.714 90.4393L238.953 90.7837L235.293 93.4679L236.276 95.3691C236.276 95.3691 236.526 95.8254 236.96 95.7668C236.96 95.7668 242.989 105.589 245.779 111.107C245.779 111.107 246.718 114.24 248.029 113.81L257.472 111.009L259.537 108.74C260.147 107.421 256.257 106.361 256.257 106.361H256.259Z" fill="url(#paint6_linear_1689_3871)"/>
<path d="M256.259 106.361C255.058 105.919 253.456 103.082 253.456 103.082L245.77 87.8457L242.355 89.1008L250.717 105.213C252.881 108.481 253.749 108.504 253.749 108.504C256.814 109.63 257.473 111.011 257.473 111.011L259.539 108.742C260.148 107.423 256.259 106.363 256.259 106.363V106.361Z" fill="url(#paint7_linear_1689_3871)"/>
<path d="M250.016 46.9391C250.016 46.9391 248.402 60.5107 231.577 69.6318L221.369 76.1345C221.369 76.1345 215.258 81.1176 219.968 89.4753C219.968 89.4753 225.62 99.2906 234.868 93.1962L244.269 88.5522C244.269 88.5522 258.528 81.1229 268.154 86.4202L250.016 46.9391Z" fill="url(#paint8_linear_1689_3871)"/>
<path d="M278.696 87.7329C285.762 84.0223 286.283 69.7511 279.86 55.8571C273.437 41.9632 262.501 33.708 255.435 37.4185C248.369 41.1291 247.847 55.4004 254.271 69.2943C260.694 83.1883 271.629 91.4435 278.696 87.7329Z" fill="#F45876"/>
<path d="M276.083 83.5603C274.149 84.1337 271.209 83.0153 268.22 80.5655C264.484 77.5032 261 72.7296 258.408 67.1234C255.674 61.2119 254.215 54.8726 254.403 49.7298C254.55 45.7142 255.698 42.762 257.473 41.8282C257.657 41.7323 257.85 41.6542 258.048 41.5939C259.982 41.0205 262.922 42.1389 265.91 44.5887C269.646 47.651 273.131 52.4245 275.723 58.0307C278.456 63.9422 279.915 70.2816 279.727 75.4244C279.58 79.44 278.433 82.3922 276.657 83.326C276.474 83.4218 276.281 83.4999 276.083 83.5603Z" fill="url(#paint9_radial_1689_3871)"/>
<path d="M239.089 64.5263C239.089 64.5263 238.118 65.3802 237.033 66.1613C237.033 66.1613 232.648 70.4307 237.508 80.4394C237.508 80.4394 242.66 89.0138 248.443 86.7752C248.443 86.7752 249.286 86.4717 249.791 86.3101C249.791 86.3101 249.833 87.1676 246.215 88.9801L233.672 95.1454C233.672 95.1454 227.302 98.7101 221.396 88.8522C221.396 88.8522 216.359 78.4547 222.757 73.564L235.05 65.7246C235.05 65.7246 237.933 63.8002 239.089 64.5263Z" fill="url(#paint10_linear_1689_3871)"/>
<path d="M282.914 48.5439C282.499 48.5439 282.086 48.3646 281.784 48.0096C281.22 47.3456 281.268 46.3196 281.891 45.7178L294.803 33.2628C295.426 32.661 296.389 32.7124 296.954 33.3764C297.519 34.0403 297.47 35.0664 296.847 35.6682L283.935 48.1232C283.643 48.4037 283.278 48.5421 282.914 48.5421V48.5439Z" fill="url(#paint11_linear_1689_3871)"/>
<path d="M286.347 60.1095C285.96 59.9462 285.639 59.6178 285.482 59.1704C285.187 58.3307 285.587 57.397 286.373 57.0828L305.316 49.3534C306.103 49.0392 306.98 49.4653 307.274 50.3032C307.569 51.1428 307.169 52.0766 306.383 52.3908L287.441 60.1202C287.073 60.2675 286.685 60.2515 286.347 60.1095Z" fill="url(#paint12_linear_1689_3871)"/>
<path d="M277.057 41.1057C276.659 41.23 276.214 41.182 275.833 40.9317C275.116 40.4631 274.892 39.4654 275.33 38.7003L280.632 29.5738C281.071 28.8105 282.007 28.5708 282.725 29.0377C283.442 29.5064 283.667 30.504 283.228 31.2692L277.927 40.3956C277.722 40.7524 277.407 40.9956 277.057 41.1039V41.1057Z" fill="url(#paint13_linear_1689_3871)"/>
<path d="M288.657 69.8768C288.369 69.5573 288.206 69.1153 288.237 68.6395C288.297 67.7466 289.024 67.072 289.863 67.1359L299.906 67.9401C300.743 68.0022 301.376 68.778 301.316 69.6727C301.256 70.5656 300.53 71.2402 299.691 71.1763L289.648 70.3721C289.257 70.3419 288.91 70.1573 288.657 69.8768Z" fill="url(#paint14_linear_1689_3871)"/>
<defs>
<linearGradient id="paint0_linear_1689_3871" x1="212.773" y1="59.5553" x2="192.712" y2="25.4683" gradientUnits="userSpaceOnUse">
<stop stop-color="#9DB3E0"/>
<stop offset="1" stop-color="#BCCFE8"/>
</linearGradient>
<linearGradient id="paint1_linear_1689_3871" x1="228.641" y1="117.3" x2="213.79" y2="67.1863" gradientUnits="userSpaceOnUse">
<stop offset="0.04" stop-color="#E8E9E4"/>
<stop offset="1" stop-color="#FEFEFE"/>
</linearGradient>
<linearGradient id="paint2_linear_1689_3871" x1="207.002" y1="34.4796" x2="212.069" y2="34.5676" gradientUnits="userSpaceOnUse">
<stop stop-color="#6F84C1"/>
<stop offset="1" stop-color="#E03D63"/>
</linearGradient>
<linearGradient id="paint3_linear_1689_3871" x1="207.002" y1="34.4796" x2="212.069" y2="34.5676" gradientUnits="userSpaceOnUse">
<stop stop-color="#6F84C1"/>
<stop offset="1" stop-color="#E03D63"/>
</linearGradient>
<linearGradient id="paint4_linear_1689_3871" x1="204.684" y1="40.9726" x2="228.707" y2="74.8827" gradientUnits="userSpaceOnUse">
<stop stop-color="#6F84C1"/>
<stop offset="1" stop-color="#E03D63"/>
</linearGradient>
<linearGradient id="paint5_linear_1689_3871" x1="185.193" y1="49.7729" x2="221.683" y2="71.2061" gradientUnits="userSpaceOnUse">
<stop stop-color="#F77493"/>
<stop offset="0.66" stop-color="#E5396B"/>
<stop offset="1" stop-color="#F45876"/>
</linearGradient>
<linearGradient id="paint6_linear_1689_3871" x1="251.429" y1="98.8081" x2="229.032" y2="109.975" gradientUnits="userSpaceOnUse">
<stop offset="0.04" stop-color="#F77493"/>
<stop offset="0.66" stop-color="#E5396B"/>
</linearGradient>
<linearGradient id="paint7_linear_1689_3871" x1="247.168" y1="90.8014" x2="256.835" y2="108.438" gradientUnits="userSpaceOnUse">
<stop stop-color="#E5396B"/>
<stop offset="0.25" stop-color="#EA507C"/>
<stop offset="1" stop-color="#E5396B"/>
</linearGradient>
<linearGradient id="paint8_linear_1689_3871" x1="232.714" y1="63.53" x2="248.538" y2="92.394" gradientUnits="userSpaceOnUse">
<stop stop-color="#F77493"/>
<stop offset="0.66" stop-color="#E5396B"/>
<stop offset="1" stop-color="#F45876"/>
</linearGradient>
<radialGradient id="paint9_radial_1689_3871" cx="0" cy="0" r="1" gradientUnits="userSpaceOnUse" gradientTransform="translate(251.86 62.1252) rotate(-52.4958) scale(23.741 29.2472)">
<stop offset="0.23" stop-color="#66182A"/>
<stop offset="1" stop-color="#F45876"/>
</radialGradient>
<linearGradient id="paint10_linear_1689_3871" x1="228.738" y1="73.3763" x2="238.163" y2="90.5683" gradientUnits="userSpaceOnUse">
<stop stop-color="#667DC4"/>
<stop offset="0.6" stop-color="#4864AA"/>
<stop offset="1" stop-color="#385396"/>
</linearGradient>
<linearGradient id="paint11_linear_1689_3871" x1="290.511" y1="42.0679" x2="288.513" y2="39.9504" gradientUnits="userSpaceOnUse">
<stop stop-color="#9DB3E0"/>
<stop offset="1" stop-color="#BCCFE8"/>
</linearGradient>
<linearGradient id="paint12_linear_1689_3871" x1="296.985" y1="56.5589" x2="295.856" y2="53.6309" gradientUnits="userSpaceOnUse">
<stop stop-color="#9DB3E0"/>
<stop offset="1" stop-color="#BCCFE8"/>
</linearGradient>
<linearGradient id="paint13_linear_1689_3871" x1="280.685" y1="35.92" x2="278.32" y2="34.5262" gradientUnits="userSpaceOnUse">
<stop stop-color="#9DB3E0"/>
<stop offset="1" stop-color="#BCCFE8"/>
</linearGradient>
<linearGradient id="paint14_linear_1689_3871" x1="294.63" y1="70.9113" x2="294.881" y2="68.0474" gradientUnits="userSpaceOnUse">
<stop stop-color="#9DB3E0"/>
<stop offset="1" stop-color="#BCCFE8"/>
</linearGradient>
</defs>
</svg>
